<?xml version="1.0" encoding="UTF-8" standalone="no"?>
<!-- Created with Inkscape (http://www.inkscape.org/) -->

<svg
   xmlns:dc="http://purl.org/dc/elements/1.1/"
   xmlns:cc="http://creativecommons.org/ns#"
   xmlns:rdf="http://www.w3.org/1999/02/22-rdf-syntax-ns#"
   xmlns:svg="http://www.w3.org/2000/svg"
   xmlns="http://www.w3.org/2000/svg"
   xmlns:sodipodi="http://sodipodi.sourceforge.net/DTD/sodipodi-0.dtd"
   xmlns:inkscape="http://www.inkscape.org/namespaces/inkscape"
   version="1.1"
   id="svg2"
   xml:space="preserve"
   width="94.493332"
   height="94.493332"
   viewBox="0 0 94.493332 94.493332"
   sodipodi:docname="HEIA-FR-ISC-dark.svg"
   inkscape:version="0.92.2 5c3e80d, 2017-08-06"><metadata
     id="metadata8"><rdf:RDF><cc:Work
         rdf:about=""><dc:format>image/svg+xml</dc:format><dc:type
           rdf:resource="http://purl.org/dc/dcmitype/StillImage" /><dc:title></dc:title></cc:Work></rdf:RDF></metadata><defs
     id="defs6" /><sodipodi:namedview
     pagecolor="#ffffff"
     bordercolor="#666666"
     borderopacity="1"
     objecttolerance="10"
     gridtolerance="10"
     guidetolerance="10"
     inkscape:pageopacity="0"
     inkscape:pageshadow="2"
     inkscape:window-width="640"
     inkscape:window-height="480"
     id="namedview4"
     showgrid="false"
     inkscape:zoom="2.4975307"
     inkscape:cx="47.246666"
     inkscape:cy="47.246666"
     inkscape:window-x="0"
     inkscape:window-y="0"
     inkscape:window-maximized="0"
     inkscape:current-layer="g10" /><g
     id="g10"
     inkscape:groupmode="layer"
     inkscape:label="ink_ext_XXXXXX"
     transform="matrix(1.3333333,0,0,-1.3333333,0,94.493333)"><g
       id="g12"
       transform="scale(0.1)"><path
         d="M 708.668,354.328 C 708.668,158.641 550.023,0 354.328,0 158.637,0 0.00390625,158.641 0.00390625,354.328 0.00390625,550.023 158.637,708.66 354.328,708.66 c 195.695,0 354.34,-158.637 354.34,-354.332"
         style="fill:#ee2628;fill-opacity:1;fill-rule:nonzero;stroke:none"
         id="path14"
         inkscape:connector-curvature="0" /><path
         d="m 469.137,345.039 c 0,-6.691 -5.442,-12.129 -12.129,-12.129 H 284.984 c -0.086,0.008 -0.156,0.047 -0.242,0.047 h -93.234 c -6.582,0.137 -11.895,5.481 -11.895,12.082 v 18.734 h 260.832 c 2.207,0 4.004,1.793 4.004,4 0,2.207 -1.797,3.997 -4.004,3.997 H 179.613 v 153.339 c 0,6.696 5.442,12.141 12.141,12.141 h 265.254 c 6.687,0 12.129,-5.445 12.129,-12.141 z M 457.008,545.246 H 191.754 c -11.106,0 -20.149,-9.031 -20.149,-20.137 v -180.07 c 0,-4.961 1.875,-9.453 4.864,-12.969 -3.817,-1.086 -7.207,-3.136 -9.531,-6.086 L 125.66,273.555 c -3.976,-5.051 -4.258,-11.719 -0.734,-16.992 3.262,-4.934 9.402,-8 16.183,-8 l 157.618,-0.079 c 2.207,0 3.992,1.797 4.003,4.004 0,2.207 -1.796,3.996 -4.003,4.004 l -157.793,0.078 c -3.899,0 -7.571,1.731 -9.348,4.414 -1.621,2.434 -1.484,5.274 0.363,7.629 l 41.278,52.43 c 1.894,2.414 5.343,3.906 8.984,3.906 h 9.062 c 0.168,0 0.313,-0.047 0.481,-0.047 h 265.254 c 11.101,0 20.137,9.032 20.137,20.137 v 180.07 c 0,11.106 -9.036,20.137 -20.137,20.137"
         style="fill:#ffffff;fill-opacity:1;fill-rule:nonzero;stroke:none"
         id="path16"
         inkscape:connector-curvature="0" /><path
         d="m 270.445,453.891 c -10.742,0 -19.484,-8.743 -19.484,-19.485 0,-10.742 8.742,-19.48 19.484,-19.48 H 376.93 c 10.742,0 19.48,8.738 19.48,19.48 0,9.524 -7.097,17.789 -16.512,19.231 -1.093,0.172 -2.07,0.781 -2.695,1.699 -0.625,0.918 -0.851,2.051 -0.605,3.129 0.554,2.461 0.828,4.894 0.828,7.242 0,18.121 -14.735,32.859 -32.86,32.859 -13.418,0 -25.371,-8.046 -30.441,-20.492 -0.809,-2.008 -3.055,-3.019 -5.105,-2.234 -2.239,0.84 -4.543,1.262 -6.836,1.262 -10.743,0 -19.473,-8.739 -19.473,-19.481 0,-1.312 -0.625,-3.187 -1.711,-3.937 -1.082,-0.735 -2.41,-1.547 -3.66,-1.079 -2.238,0.852 -4.563,1.286 -6.895,1.286 z M 376.93,406.93 H 270.445 c -15.16,0 -27.492,12.328 -27.492,27.476 0,15.153 12.332,27.485 27.492,27.485 1.524,0 3.035,-0.129 4.532,-0.383 1.894,13.316 13.378,23.594 27.207,23.594 2.031,0 4.062,-0.231 6.062,-0.696 6.965,13.574 20.859,22.16 36.32,22.16 22.528,0 40.868,-18.332 40.868,-40.859 0,-1.664 -0.118,-3.363 -0.332,-5.074 11.394,-3.492 19.316,-13.953 19.316,-26.227 0,-15.148 -12.332,-27.476 -27.488,-27.476"
         style="fill:#ffffff;fill-opacity:1;fill-rule:nonzero;stroke:none"
         id="path18"
         inkscape:connector-curvature="0" /><path
         d="m 522.152,193.672 c -1.25,0 -2.492,0.594 -3.269,1.699 -1.27,1.805 -0.84,4.297 0.965,5.574 18.632,13.137 29.953,34.504 30.273,57.149 0.332,22.656 -10.371,44.336 -28.613,57.988 -1.778,1.328 -2.129,3.828 -0.809,5.598 1.336,1.785 3.848,2.129 5.594,0.808 20.293,-15.183 32.199,-39.304 31.836,-64.511 -0.371,-25.196 -12.949,-48.965 -33.672,-63.575 -0.703,-0.488 -1.504,-0.73 -2.305,-0.73"
         style="fill:#ffffff;fill-opacity:1;fill-rule:nonzero;stroke:none"
         id="path20"
         inkscape:connector-curvature="0" /><path
         d="m 547.203,168.516 c -1.25,0 -2.492,0.593 -3.273,1.699 -1.27,1.805 -0.84,4.297 0.968,5.574 26.805,18.899 43.094,49.629 43.555,82.219 0.469,32.586 -14.922,63.777 -41.164,83.418 -1.777,1.328 -2.129,3.828 -0.809,5.594 1.329,1.789 3.848,2.125 5.594,0.812 28.293,-21.172 44.883,-54.797 44.387,-89.941 -0.508,-35.137 -18.059,-68.274 -46.953,-88.645 -0.703,-0.488 -1.504,-0.73 -2.305,-0.73"
         style="fill:#ffffff;fill-opacity:1;fill-rule:nonzero;stroke:none"
         id="path22"
         inkscape:connector-curvature="0" /><path
         d="m 499.105,217.637 c -1.414,0 -2.792,0.761 -3.515,2.097 -1.055,1.946 -0.332,4.375 1.613,5.422 12.313,6.66 20.098,19.453 20.293,33.399 0.203,13.953 -7.199,26.972 -19.316,33.953 -1.914,1.105 -2.571,3.555 -1.465,5.469 1.113,1.914 3.555,2.558 5.469,1.464 14.617,-8.437 23.554,-24.148 23.32,-41.003 -0.258,-16.836 -9.641,-32.286 -24.492,-40.313 -0.606,-0.332 -1.262,-0.488 -1.907,-0.488"
         style="fill:#ffffff;fill-opacity:1;fill-rule:nonzero;stroke:none"
         id="path24"
         inkscape:connector-curvature="0" /><path
         d="m 469.859,274.969 c -0.078,0 -0.148,0 -0.226,0 -8.563,0 -15.598,-6.903 -15.731,-15.496 -0.117,-8.672 6.836,-15.821 15.508,-15.957 0.078,0 0.145,0 0.223,0 8.566,0 15.597,6.914 15.734,15.507 0.117,8.661 -6.836,15.809 -15.508,15.946"
         style="fill:#ffffff;fill-opacity:1;fill-rule:nonzero;stroke:none"
         id="path26"
         inkscape:connector-curvature="0" /><path
         d="m 424.82,145.234 c 0,-1.543 -1.25,-2.793 -2.793,-2.793 H 343.48 c -1.542,0 -2.792,1.25 -2.792,2.793 v 12.227 h 58.73 c 2.207,0 4.004,1.797 4.004,4.004 0,2.207 -1.797,4.004 -4.004,4.004 h -58.73 v 125.136 c 0,1.543 1.25,2.793 2.792,2.793 h 78.547 c 1.543,0 2.793,-1.25 2.793,-2.793 z m -2.793,156.172 H 343.48 c -5.957,0 -10.8,-4.843 -10.8,-10.801 V 145.234 c 0,-5.957 4.843,-10.8 10.8,-10.8 h 78.547 c 5.957,0 10.801,4.843 10.801,10.8 v 145.371 c 0,5.958 -4.844,10.801 -10.801,10.801"
         style="fill:#ffffff;fill-opacity:1;fill-rule:nonzero;stroke:none"
         id="path28"
         inkscape:connector-curvature="0" /><path
         d="m 389.184,271.66 h -12.852 c -2.207,0 -4.004,1.797 -4.004,4.004 0,2.207 1.797,4.004 4.004,4.004 h 12.852 c 2.207,0 4.004,-1.797 4.004,-4.004 0,-2.207 -1.797,-4.004 -4.004,-4.004"
         style="fill:#ffffff;fill-opacity:1;fill-rule:nonzero;stroke:none"
         id="path30"
         inkscape:connector-curvature="0" /></g></g></svg>