<?xml version="1.0" encoding="UTF-8"?>
<svg xmlns="http://www.w3.org/2000/svg" xmlns:xlink="http://www.w3.org/1999/xlink" width="329pt" height="53.6667pt" viewBox="0 0 329 53.6667" version="1.1">
<g id="surface1">
<path style=" stroke:none;fill-rule:nonzero;fill:rgb(100%,100%,100%);fill-opacity:1;" d="M 32.117188 10.132812 L 32.117188 8.898438 C 22.5 9.730469 14.894531 17.707031 14.652344 27.476562 L 15.882812 27.476562 C 16.003906 22.875 17.847656 18.566406 21.113281 15.300781 C 24.101562 12.3125 27.960938 10.511719 32.117188 10.132812 "/>
<path style=" stroke:none;fill-rule:nonzero;fill:rgb(100%,100%,100%);fill-opacity:1;" d="M 47.308594 14.429688 C 44.039062 11.160156 39.796875 9.226562 35.234375 8.882812 L 35.234375 10.117188 C 39.464844 10.457031 43.402344 12.261719 46.4375 15.296875 C 49.820312 18.679688 51.679688 23.175781 51.679688 27.960938 C 51.679688 37.832031 43.648438 45.867188 33.777344 45.867188 C 29.007812 45.867188 24.527344 44.015625 21.148438 40.652344 L 19.460938 40.652344 C 19.714844 40.9375 19.972656 41.21875 20.242188 41.492188 C 23.859375 45.105469 28.664062 47.09375 33.777344 47.09375 C 38.886719 47.09375 43.691406 45.105469 47.308594 41.492188 C 50.921875 37.875 52.910156 33.070312 52.910156 27.960938 C 52.910156 22.847656 50.921875 18.042969 47.308594 14.429688 "/>
<path style=" stroke:none;fill-rule:evenodd;fill:rgb(100%,100%,100%);fill-opacity:1;" d="M 45.554688 38.332031 L 43.433594 38.332031 L 44.640625 33.492188 L 41.84375 33.8125 L 41.84375 25.011719 L 40.503906 25.011719 L 40.503906 38.332031 L 25.90625 38.332031 L 25.90625 36.789062 L 10.964844 37.746094 L 10.964844 38.253906 L 11.855469 38.332031 L 4.722656 38.332031 L 4.722656 39.710938 L 45.617188 39.710938 L 45.617188 38.332031 Z M 45.554688 38.332031 "/>
<path style=" stroke:none;fill-rule:evenodd;fill:rgb(100%,100%,100%);fill-opacity:1;" d="M 26.015625 25.011719 L 22.082031 25.011719 L 8.664062 34.835938 L 10.988281 34.835938 Z M 26.015625 25.011719 "/>
<path style=" stroke:none;fill-rule:evenodd;fill:rgb(100%,100%,100%);fill-opacity:1;" d="M 27.320312 20.226562 L 27.589844 20.226562 L 27.589844 20.003906 C 27.597656 19.996094 27.601562 19.992188 27.609375 19.984375 C 28.046875 19.542969 30.226562 18.925781 33.695312 18.925781 C 37.160156 18.925781 39.339844 19.542969 39.777344 19.984375 C 39.785156 19.992188 39.789062 19.996094 39.796875 20.003906 L 39.796875 20.226562 L 40.933594 20.226562 L 40.933594 19.957031 C 40.933594 19.671875 40.816406 19.414062 40.582031 19.179688 C 40.113281 18.710938 39.066406 18.332031 37.660156 18.089844 C 37.3125 17.8125 36.433594 17.628906 35.421875 17.535156 L 35.816406 17.535156 L 35.816406 17.265625 C 35.816406 17.050781 35.71875 16.84375 35.542969 16.683594 C 35.230469 16.398438 34.699219 16.277344 34.273438 16.230469 L 34.273438 6.570312 L 33.074219 6.570312 L 33.074219 16.226562 C 32.253906 16.320312 31.53125 16.625 31.53125 17.265625 L 31.53125 17.535156 L 31.953125 17.535156 C 31.085938 17.613281 30.15625 17.773438 29.746094 18.089844 C 28.046875 18.371094 26.453125 18.914062 26.453125 19.957031 L 26.453125 20.226562 Z M 27.320312 20.226562 "/>
<path style=" stroke:none;fill-rule:evenodd;fill:rgb(100%,100%,100%);fill-opacity:1;" d="M 25.90625 26.824219 L 10.964844 35.441406 L 10.964844 35.96875 L 25.90625 29.609375 Z M 25.90625 26.824219 "/>
<path style=" stroke:none;fill-rule:evenodd;fill:rgb(100%,100%,100%);fill-opacity:1;" d="M 25.90625 30.402344 L 10.964844 36.316406 L 10.964844 36.660156 L 25.90625 32.78125 Z M 25.90625 30.402344 "/>
<path style=" stroke:none;fill-rule:nonzero;fill:rgb(100%,100%,100%);fill-opacity:1;" d="M 10.964844 37.359375 L 25.90625 35.957031 L 25.90625 33.597656 L 10.964844 37.035156 Z M 10.964844 37.359375 "/>
<path style=" stroke:none;fill-rule:nonzero;fill:rgb(100%,100%,100%);fill-opacity:1;" d="M 38.433594 20.964844 C 38.433594 20.957031 38.4375 20.949219 38.4375 20.941406 C 38.4375 20.382812 36.3125 19.929688 33.695312 19.929688 C 31.074219 19.929688 28.949219 20.382812 28.949219 20.941406 L 28.949219 22.605469 C 30.296875 22.132812 33.003906 22.105469 33.683594 22.105469 C 34.367188 22.105469 37.089844 22.132812 38.433594 22.609375 Z M 38.433594 20.964844 "/>
<path style=" stroke:none;fill-rule:evenodd;fill:rgb(100%,100%,100%);fill-opacity:1;" d="M 38.433594 24.609375 L 38.433594 23.351562 C 37.914062 23.125 36.324219 22.8125 33.683594 22.8125 C 31.070312 22.8125 29.484375 23.117188 28.949219 23.34375 L 28.949219 25.207031 C 30.230469 24.8125 32.738281 24.773438 33.675781 24.773438 C 34.617188 24.773438 37.164062 24.8125 38.433594 25.21875 Z M 38.433594 24.609375 "/>
<path style=" stroke:none;fill-rule:evenodd;fill:rgb(100%,100%,100%);fill-opacity:1;" d="M 38.433594 26.507812 L 38.433594 25.945312 C 37.917969 25.746094 36.332031 25.480469 33.675781 25.480469 C 31.070312 25.480469 29.5 25.734375 28.949219 25.933594 L 28.949219 27.808594 C 30.160156 27.488281 32.492188 27.445312 33.664062 27.445312 C 34.855469 27.445312 37.238281 27.488281 38.433594 27.820312 Z M 38.433594 26.507812 "/>
<path style=" stroke:none;fill-rule:evenodd;fill:rgb(100%,100%,100%);fill-opacity:1;" d="M 38.433594 30.175781 L 38.433594 28.535156 C 37.90625 28.371094 36.3125 28.152344 33.664062 28.152344 C 31.101562 28.152344 29.527344 28.359375 28.949219 28.519531 L 28.949219 30.402344 C 30.082031 30.160156 32.234375 30.113281 33.65625 30.113281 C 35.109375 30.113281 37.320312 30.160156 38.433594 30.417969 Z M 38.433594 30.175781 "/>
<path style=" stroke:none;fill-rule:nonzero;fill:rgb(100%,100%,100%);fill-opacity:1;" d="M 38.433594 32.078125 L 38.433594 31.117188 C 37.851562 30.980469 36.125 30.820312 33.65625 30.820312 C 31.28125 30.820312 29.59375 30.964844 28.949219 31.105469 L 28.949219 32.988281 C 30.070312 32.816406 32.230469 32.785156 33.644531 32.785156 C 35.101562 32.785156 37.34375 32.816406 38.433594 33.003906 Z M 38.433594 32.078125 "/>
<path style=" stroke:none;fill-rule:nonzero;fill:rgb(100%,100%,100%);fill-opacity:1;" d="M 33.695312 35.84375 C 35.472656 35.84375 36.929688 35.886719 37.726562 35.941406 C 37.816406 35.941406 38.089844 35.957031 38.285156 35.996094 C 38.3125 36 38.335938 36.003906 38.351562 36.007812 C 38.382812 36.015625 38.410156 36.027344 38.429688 36.035156 L 38.429688 35.910156 L 38.433594 35.910156 L 38.433594 33.703125 C 37.832031 33.601562 36.105469 33.492188 33.644531 33.492188 C 31.304688 33.492188 29.628906 33.59375 28.949219 33.691406 L 28.949219 36.027344 C 28.988281 36.015625 29.035156 36.003906 29.089844 35.996094 C 29.136719 35.988281 29.203125 35.976562 29.285156 35.96875 C 29.40625 35.957031 29.507812 35.949219 29.507812 35.949219 L 29.507812 35.953125 C 30.261719 35.890625 31.792969 35.84375 33.695312 35.84375 "/>
<path style=" stroke:none;fill-rule:nonzero;fill:rgb(100%,100%,100%);fill-opacity:1;" d="M 63.652344 39.742188 L 63.652344 36.011719 L 60.1875 36.011719 L 60.1875 39.742188 L 58.890625 39.742188 L 58.890625 31.203125 L 60.1875 31.203125 L 60.1875 34.847656 L 63.652344 34.847656 L 63.652344 31.203125 L 64.949219 31.203125 L 64.949219 39.742188 Z M 63.652344 39.742188 "/>
<path style=" stroke:none;fill-rule:nonzero;fill:rgb(100%,100%,100%);fill-opacity:1;" d="M 70.316406 35.027344 C 70.085938 34.800781 69.773438 34.679688 69.414062 34.679688 C 69.054688 34.679688 68.753906 34.800781 68.527344 35.027344 C 68.15625 35.398438 68.109375 36.035156 68.109375 36.695312 C 68.109375 37.355469 68.15625 37.992188 68.527344 38.363281 C 68.753906 38.589844 69.054688 38.722656 69.414062 38.722656 C 69.773438 38.722656 70.085938 38.589844 70.316406 38.363281 C 70.6875 37.992188 70.734375 37.355469 70.734375 36.695312 C 70.734375 36.035156 70.6875 35.398438 70.316406 35.027344 M 71.238281 39.09375 C 70.84375 39.5 70.242188 39.8125 69.414062 39.8125 C 68.585938 39.8125 68 39.5 67.605469 39.09375 C 67.027344 38.496094 66.886719 37.726562 66.886719 36.695312 C 66.886719 35.675781 67.027344 34.910156 67.605469 34.308594 C 68 33.898438 68.585938 33.589844 69.414062 33.589844 C 70.242188 33.589844 70.84375 33.898438 71.238281 34.308594 C 71.8125 34.910156 71.957031 35.675781 71.957031 36.695312 C 71.957031 37.726562 71.8125 38.496094 71.238281 39.09375 "/>
<path style=" stroke:none;fill-rule:nonzero;fill:rgb(100%,100%,100%);fill-opacity:1;" d="M 76.148438 39.8125 C 74.78125 39.8125 73.4375 38.972656 73.4375 36.695312 C 73.4375 34.417969 74.78125 33.589844 76.148438 33.589844 C 76.984375 33.589844 77.574219 33.828125 78.148438 34.441406 L 77.3125 35.253906 C 76.925781 34.835938 76.628906 34.679688 76.148438 34.679688 C 75.679688 34.679688 75.285156 34.871094 75.019531 35.21875 C 74.757812 35.554688 74.660156 35.988281 74.660156 36.695312 C 74.660156 37.402344 74.757812 37.847656 75.019531 38.179688 C 75.285156 38.53125 75.679688 38.722656 76.148438 38.722656 C 76.628906 38.722656 76.925781 38.566406 77.3125 38.144531 L 78.148438 38.949219 C 77.574219 39.5625 76.984375 39.8125 76.148438 39.8125 "/>
<path style=" stroke:none;fill-rule:nonzero;fill:rgb(100%,100%,100%);fill-opacity:1;" d="M 83.382812 39.742188 L 83.382812 36.011719 C 83.382812 35.089844 82.84375 34.679688 82.160156 34.679688 C 81.476562 34.679688 80.925781 35.097656 80.925781 36.011719 L 80.925781 39.742188 L 79.699219 39.742188 L 79.699219 31.203125 L 80.925781 31.203125 L 80.925781 34.273438 C 81.34375 33.816406 81.894531 33.589844 82.496094 33.589844 C 83.851562 33.589844 84.605469 34.5 84.605469 35.820312 L 84.605469 39.742188 Z M 83.382812 39.742188 "/>
<path style=" stroke:none;fill-rule:nonzero;fill:rgb(100%,100%,100%);fill-opacity:1;" d="M 88.589844 39.8125 C 87.59375 39.8125 86.757812 39.644531 86.035156 38.9375 L 86.839844 38.132812 C 87.332031 38.636719 87.992188 38.769531 88.589844 38.769531 C 89.335938 38.769531 89.921875 38.503906 89.921875 37.929688 C 89.921875 37.523438 89.695312 37.257812 89.105469 37.210938 L 88.136719 37.125 C 86.996094 37.03125 86.335938 36.515625 86.335938 35.449219 C 86.335938 34.257812 87.355469 33.589844 88.628906 33.589844 C 89.539062 33.589844 90.316406 33.78125 90.882812 34.273438 L 90.113281 35.050781 C 89.730469 34.726562 89.191406 34.609375 88.613281 34.609375 C 87.882812 34.609375 87.511719 34.929688 87.511719 35.386719 C 87.511719 35.746094 87.703125 36.023438 88.351562 36.082031 L 89.3125 36.167969 C 90.449219 36.261719 91.121094 36.800781 91.121094 37.882812 C 91.121094 39.152344 90.042969 39.8125 88.589844 39.8125 "/>
<path style=" stroke:none;fill-rule:nonzero;fill:rgb(100%,100%,100%);fill-opacity:1;" d="M 95.144531 39.8125 C 93.777344 39.8125 92.433594 38.972656 92.433594 36.695312 C 92.433594 34.417969 93.777344 33.589844 95.144531 33.589844 C 95.980469 33.589844 96.570312 33.828125 97.144531 34.441406 L 96.308594 35.253906 C 95.921875 34.835938 95.621094 34.679688 95.144531 34.679688 C 94.675781 34.679688 94.28125 34.871094 94.015625 35.21875 C 93.75 35.554688 93.65625 35.988281 93.65625 36.695312 C 93.65625 37.402344 93.75 37.847656 94.015625 38.179688 C 94.28125 38.53125 94.675781 38.722656 95.144531 38.722656 C 95.621094 38.722656 95.921875 38.566406 96.308594 38.144531 L 97.144531 38.949219 C 96.570312 39.5625 95.980469 39.8125 95.144531 39.8125 "/>
<path style=" stroke:none;fill-rule:nonzero;fill:rgb(100%,100%,100%);fill-opacity:1;" d="M 102.378906 39.742188 L 102.378906 36.011719 C 102.378906 35.089844 101.835938 34.679688 101.15625 34.679688 C 100.472656 34.679688 99.917969 35.097656 99.917969 36.011719 L 99.917969 39.742188 L 98.695312 39.742188 L 98.695312 31.203125 L 99.917969 31.203125 L 99.917969 34.273438 C 100.339844 33.816406 100.890625 33.589844 101.492188 33.589844 C 102.847656 33.589844 103.601562 34.5 103.601562 35.820312 L 103.601562 39.742188 Z M 102.378906 39.742188 "/>
<path style=" stroke:none;fill-rule:nonzero;fill:rgb(100%,100%,100%);fill-opacity:1;" d="M 109.289062 39.742188 L 109.289062 39.128906 C 108.871094 39.585938 108.28125 39.8125 107.671875 39.8125 C 107.046875 39.8125 106.53125 39.609375 106.171875 39.261719 C 105.703125 38.804688 105.558594 38.230469 105.558594 37.546875 L 105.558594 33.660156 L 106.78125 33.660156 L 106.78125 37.367188 C 106.78125 38.3125 107.324219 38.722656 108.007812 38.722656 C 108.691406 38.722656 109.265625 38.300781 109.265625 37.367188 L 109.265625 33.660156 L 110.488281 33.660156 L 110.488281 39.742188 Z M 109.289062 39.742188 "/>
<path style=" stroke:none;fill-rule:nonzero;fill:rgb(100%,100%,100%);fill-opacity:1;" d="M 114.199219 39.742188 C 113.035156 39.742188 112.53125 38.960938 112.53125 38.0625 L 112.53125 31.203125 L 113.753906 31.203125 L 113.753906 37.988281 C 113.753906 38.457031 113.921875 38.699219 114.414062 38.699219 L 114.957031 38.699219 L 114.957031 39.742188 Z M 114.199219 39.742188 "/>
<path style=" stroke:none;fill-rule:nonzero;fill:rgb(100%,100%,100%);fill-opacity:1;" d="M 119.597656 35.375 C 119.402344 34.917969 118.972656 34.609375 118.398438 34.609375 C 117.820312 34.609375 117.378906 34.917969 117.183594 35.375 C 117.066406 35.652344 117.042969 35.832031 117.03125 36.203125 L 119.765625 36.203125 C 119.753906 35.832031 119.714844 35.652344 119.597656 35.375 M 117.03125 37.054688 C 117.03125 38.097656 117.582031 38.757812 118.574219 38.757812 C 119.261719 38.757812 119.621094 38.566406 120.050781 38.132812 L 120.832031 38.863281 C 120.207031 39.488281 119.621094 39.8125 118.554688 39.8125 C 117.03125 39.8125 115.816406 39.011719 115.816406 36.695312 C 115.816406 34.726562 116.839844 33.589844 118.398438 33.589844 C 120.027344 33.589844 120.976562 34.789062 120.976562 36.515625 L 120.976562 37.054688 Z M 117.03125 37.054688 "/>
<path style=" stroke:none;fill-rule:nonzero;fill:rgb(100%,100%,100%);fill-opacity:1;" d="M 127.265625 34.703125 L 127.265625 39.742188 L 126.042969 39.742188 L 126.042969 34.703125 L 125.347656 34.703125 L 125.347656 33.769531 L 126.042969 33.769531 L 126.042969 32.832031 C 126.042969 31.957031 126.570312 31.140625 127.710938 31.140625 L 128.476562 31.140625 L 128.476562 32.183594 L 127.9375 32.183594 C 127.480469 32.183594 127.265625 32.449219 127.265625 32.890625 L 127.265625 33.769531 L 128.476562 33.769531 L 128.476562 34.703125 Z M 127.265625 34.703125 "/>
<path style=" stroke:none;fill-rule:nonzero;fill:rgb(100%,100%,100%);fill-opacity:1;" d="M 133.058594 31.203125 L 134.164062 31.203125 L 134.164062 32.496094 L 133.058594 32.496094 Z M 130.46875 31.203125 L 131.574219 31.203125 L 131.574219 32.496094 L 130.46875 32.496094 Z M 133.589844 39.742188 L 133.589844 39.128906 C 133.167969 39.585938 132.578125 39.8125 131.96875 39.8125 C 131.34375 39.8125 130.828125 39.609375 130.46875 39.261719 C 130.003906 38.804688 129.859375 38.230469 129.859375 37.546875 L 129.859375 33.660156 L 131.082031 33.660156 L 131.082031 37.367188 C 131.082031 38.316406 131.621094 38.722656 132.304688 38.722656 C 132.988281 38.722656 133.5625 38.300781 133.5625 37.367188 L 133.5625 33.660156 L 134.785156 33.660156 L 134.785156 39.742188 Z M 133.589844 39.742188 "/>
<path style=" stroke:none;fill-rule:nonzero;fill:rgb(100%,100%,100%);fill-opacity:1;" d="M 140.210938 35.085938 C 139.9375 34.8125 139.71875 34.679688 139.300781 34.679688 C 138.640625 34.679688 138.089844 35.207031 138.089844 36.046875 L 138.089844 39.742188 L 136.867188 39.742188 L 136.867188 33.660156 L 138.066406 33.660156 L 138.066406 34.320312 C 138.375 33.890625 139 33.589844 139.683594 33.589844 C 140.273438 33.589844 140.714844 33.742188 141.136719 34.164062 Z M 140.210938 35.085938 "/>
<path style=" stroke:none;fill-rule:nonzero;fill:rgb(100%,100%,100%);fill-opacity:1;" d="M 148.179688 32.363281 L 148.179688 39.742188 L 146.886719 39.742188 L 146.886719 32.363281 L 144.535156 32.363281 L 144.535156 31.203125 L 150.53125 31.203125 L 150.53125 32.363281 Z M 148.179688 32.363281 "/>
<path style=" stroke:none;fill-rule:nonzero;fill:rgb(100%,100%,100%);fill-opacity:1;" d="M 154.550781 35.375 C 154.359375 34.917969 153.925781 34.609375 153.351562 34.609375 C 152.777344 34.609375 152.332031 34.917969 152.140625 35.375 C 152.019531 35.652344 151.996094 35.832031 151.984375 36.203125 L 154.71875 36.203125 C 154.707031 35.832031 154.671875 35.652344 154.550781 35.375 M 151.984375 37.054688 C 151.984375 38.097656 152.535156 38.757812 153.53125 38.757812 C 154.214844 38.757812 154.574219 38.566406 155.007812 38.132812 L 155.785156 38.863281 C 155.164062 39.488281 154.574219 39.8125 153.507812 39.8125 C 151.984375 39.8125 150.773438 39.011719 150.773438 36.695312 C 150.773438 34.726562 151.792969 33.589844 153.351562 33.589844 C 154.984375 33.589844 155.929688 34.789062 155.929688 36.515625 L 155.929688 37.054688 Z M 151.984375 37.054688 "/>
<path style=" stroke:none;fill-rule:nonzero;fill:rgb(100%,100%,100%);fill-opacity:1;" d="M 160.082031 39.8125 C 158.714844 39.8125 157.375 38.972656 157.375 36.695312 C 157.375 34.417969 158.714844 33.589844 160.082031 33.589844 C 160.921875 33.589844 161.511719 33.828125 162.085938 34.441406 L 161.246094 35.253906 C 160.863281 34.835938 160.5625 34.679688 160.082031 34.679688 C 159.617188 34.679688 159.21875 34.871094 158.957031 35.21875 C 158.691406 35.554688 158.597656 35.988281 158.597656 36.695312 C 158.597656 37.402344 158.691406 37.847656 158.957031 38.179688 C 159.21875 38.53125 159.617188 38.722656 160.082031 38.722656 C 160.5625 38.722656 160.863281 38.566406 161.246094 38.144531 L 162.085938 38.949219 C 161.511719 39.5625 160.921875 39.8125 160.082031 39.8125 "/>
<path style=" stroke:none;fill-rule:nonzero;fill:rgb(100%,100%,100%);fill-opacity:1;" d="M 167.320312 39.742188 L 167.320312 36.011719 C 167.320312 35.089844 166.777344 34.679688 166.09375 34.679688 C 165.410156 34.679688 164.859375 35.097656 164.859375 36.011719 L 164.859375 39.742188 L 163.636719 39.742188 L 163.636719 31.203125 L 164.859375 31.203125 L 164.859375 34.273438 C 165.28125 33.816406 165.832031 33.589844 166.429688 33.589844 C 167.785156 33.589844 168.542969 34.5 168.542969 35.820312 L 168.542969 39.742188 Z M 167.320312 39.742188 "/>
<path style=" stroke:none;fill-rule:nonzero;fill:rgb(100%,100%,100%);fill-opacity:1;" d="M 174.265625 39.742188 L 174.265625 36.035156 C 174.265625 35.089844 173.726562 34.679688 173.042969 34.679688 C 172.359375 34.679688 171.785156 35.097656 171.785156 36.035156 L 171.785156 39.742188 L 170.5625 39.742188 L 170.5625 33.660156 L 171.761719 33.660156 L 171.761719 34.273438 C 172.179688 33.816406 172.769531 33.589844 173.378906 33.589844 C 174.003906 33.589844 174.519531 33.792969 174.878906 34.140625 C 175.347656 34.59375 175.492188 35.171875 175.492188 35.855469 L 175.492188 39.742188 Z M 174.265625 39.742188 "/>
<path style=" stroke:none;fill-rule:nonzero;fill:rgb(100%,100%,100%);fill-opacity:1;" d="M 177.507812 33.660156 L 178.730469 33.660156 L 178.730469 39.742188 L 177.507812 39.742188 Z M 177.472656 31.164062 L 178.769531 31.164062 L 178.769531 32.460938 L 177.472656 32.460938 Z M 177.472656 31.164062 "/>
<path style=" stroke:none;fill-rule:nonzero;fill:rgb(100%,100%,100%);fill-opacity:1;" d="M 184.632812 39.742188 L 182.929688 36.933594 L 182.03125 37.953125 L 182.03125 39.742188 L 180.808594 39.742188 L 180.808594 31.203125 L 182.03125 31.203125 L 182.03125 36.46875 L 184.394531 33.660156 L 185.882812 33.660156 L 183.769531 36.046875 L 186.144531 39.742188 Z M 184.632812 39.742188 "/>
<path style=" stroke:none;fill-rule:nonzero;fill:rgb(100%,100%,100%);fill-opacity:1;" d="M 194.199219 39.742188 L 194.199219 39.128906 C 193.777344 39.585938 193.191406 39.8125 192.578125 39.8125 C 191.957031 39.8125 191.441406 39.609375 191.078125 39.261719 C 190.613281 38.804688 190.46875 38.230469 190.46875 37.546875 L 190.46875 33.660156 L 191.691406 33.660156 L 191.691406 37.367188 C 191.691406 38.3125 192.230469 38.722656 192.914062 38.722656 C 193.597656 38.722656 194.175781 38.300781 194.175781 37.367188 L 194.175781 33.660156 L 195.398438 33.660156 L 195.398438 39.742188 Z M 194.199219 39.742188 "/>
<path style=" stroke:none;fill-rule:nonzero;fill:rgb(100%,100%,100%);fill-opacity:1;" d="M 201.183594 39.742188 L 201.183594 36.035156 C 201.183594 35.089844 200.640625 34.679688 199.957031 34.679688 C 199.273438 34.679688 198.699219 35.097656 198.699219 36.035156 L 198.699219 39.742188 L 197.476562 39.742188 L 197.476562 33.660156 L 198.675781 33.660156 L 198.675781 34.273438 C 199.09375 33.816406 199.683594 33.589844 200.292969 33.589844 C 200.917969 33.589844 201.433594 33.792969 201.792969 34.140625 C 202.261719 34.59375 202.40625 35.171875 202.40625 35.855469 L 202.40625 39.742188 Z M 201.183594 39.742188 "/>
<path style=" stroke:none;fill-rule:nonzero;fill:rgb(100%,100%,100%);fill-opacity:1;" d="M 206.632812 34.679688 C 205.527344 34.679688 205.359375 35.617188 205.359375 36.695312 C 205.359375 37.773438 205.527344 38.722656 206.632812 38.722656 C 207.734375 38.722656 207.890625 37.773438 207.890625 36.695312 C 207.890625 35.617188 207.734375 34.679688 206.632812 34.679688 M 207.914062 39.742188 L 207.914062 39.09375 C 207.457031 39.644531 206.96875 39.8125 206.308594 39.8125 C 205.695312 39.8125 205.15625 39.609375 204.820312 39.273438 C 204.207031 38.660156 204.136719 37.617188 204.136719 36.695312 C 204.136719 35.773438 204.207031 34.742188 204.820312 34.128906 C 205.15625 33.792969 205.683594 33.589844 206.296875 33.589844 C 206.941406 33.589844 207.445312 33.742188 207.890625 34.273438 L 207.890625 31.203125 L 209.113281 31.203125 L 209.113281 39.742188 Z M 207.914062 39.742188 "/>
<path style=" stroke:none;fill-rule:nonzero;fill:rgb(100%,100%,100%);fill-opacity:1;" d="M 217.011719 33.132812 L 215.679688 36.921875 L 218.304688 36.921875 Z M 219.253906 39.742188 L 218.664062 38.027344 L 215.296875 38.027344 L 214.707031 39.742188 L 213.328125 39.742188 L 216.457031 31.203125 L 217.5 31.203125 L 220.632812 39.742188 Z M 219.253906 39.742188 "/>
<path style=" stroke:none;fill-rule:nonzero;fill:rgb(100%,100%,100%);fill-opacity:1;" d="M 225.183594 35.085938 C 224.90625 34.8125 224.691406 34.679688 224.269531 34.679688 C 223.609375 34.679688 223.058594 35.207031 223.058594 36.046875 L 223.058594 39.742188 L 221.835938 39.742188 L 221.835938 33.660156 L 223.035156 33.660156 L 223.035156 34.320312 C 223.347656 33.890625 223.972656 33.589844 224.65625 33.589844 C 225.242188 33.589844 225.6875 33.742188 226.105469 34.164062 Z M 225.183594 35.085938 "/>
<path style=" stroke:none;fill-rule:nonzero;fill:rgb(100%,100%,100%);fill-opacity:1;" d="M 229.246094 39.8125 C 227.878906 39.8125 226.539062 38.972656 226.539062 36.695312 C 226.539062 34.417969 227.878906 33.589844 229.246094 33.589844 C 230.085938 33.589844 230.675781 33.828125 231.25 34.441406 L 230.410156 35.253906 C 230.027344 34.835938 229.726562 34.679688 229.246094 34.679688 C 228.78125 34.679688 228.382812 34.871094 228.121094 35.21875 C 227.855469 35.554688 227.761719 35.988281 227.761719 36.695312 C 227.761719 37.402344 227.855469 37.847656 228.121094 38.179688 C 228.382812 38.53125 228.78125 38.722656 229.246094 38.722656 C 229.726562 38.722656 230.027344 38.566406 230.410156 38.144531 L 231.25 38.949219 C 230.675781 39.5625 230.085938 39.8125 229.246094 39.8125 "/>
<path style=" stroke:none;fill-rule:nonzero;fill:rgb(100%,100%,100%);fill-opacity:1;" d="M 236.484375 39.742188 L 236.484375 36.011719 C 236.484375 35.089844 235.941406 34.679688 235.257812 34.679688 C 234.574219 34.679688 234.023438 35.097656 234.023438 36.011719 L 234.023438 39.742188 L 232.800781 39.742188 L 232.800781 31.203125 L 234.023438 31.203125 L 234.023438 34.273438 C 234.445312 33.816406 234.996094 33.589844 235.59375 33.589844 C 236.949219 33.589844 237.707031 34.5 237.707031 35.820312 L 237.707031 39.742188 Z M 236.484375 39.742188 "/>
<path style=" stroke:none;fill-rule:nonzero;fill:rgb(100%,100%,100%);fill-opacity:1;" d="M 239.726562 33.660156 L 240.949219 33.660156 L 240.949219 39.742188 L 239.726562 39.742188 Z M 239.6875 31.164062 L 240.984375 31.164062 L 240.984375 32.460938 L 239.6875 32.460938 Z M 239.6875 31.164062 "/>
<path style=" stroke:none;fill-rule:nonzero;fill:rgb(100%,100%,100%);fill-opacity:1;" d="M 244.835938 39.742188 C 243.695312 39.742188 243.167969 38.925781 243.167969 38.050781 L 243.167969 34.703125 L 242.472656 34.703125 L 242.472656 33.769531 L 243.167969 33.769531 L 243.167969 31.921875 L 244.390625 31.921875 L 244.390625 33.769531 L 245.566406 33.769531 L 245.566406 34.703125 L 244.390625 34.703125 L 244.390625 37.988281 C 244.390625 38.433594 244.605469 38.699219 245.0625 38.699219 L 245.566406 38.699219 L 245.566406 39.742188 Z M 244.835938 39.742188 "/>
<path style=" stroke:none;fill-rule:nonzero;fill:rgb(100%,100%,100%);fill-opacity:1;" d="M 250.664062 35.375 C 250.472656 34.917969 250.042969 34.609375 249.464844 34.609375 C 248.890625 34.609375 248.445312 34.917969 248.253906 35.375 C 248.132812 35.652344 248.109375 35.832031 248.097656 36.203125 L 250.832031 36.203125 C 250.820312 35.832031 250.785156 35.652344 250.664062 35.375 M 248.097656 37.054688 C 248.097656 38.097656 248.652344 38.757812 249.644531 38.757812 C 250.328125 38.757812 250.6875 38.566406 251.121094 38.132812 L 251.902344 38.863281 C 251.277344 39.488281 250.6875 39.8125 249.621094 39.8125 C 248.097656 39.8125 246.886719 39.011719 246.886719 36.695312 C 246.886719 34.726562 247.90625 33.589844 249.464844 33.589844 C 251.097656 33.589844 252.042969 34.789062 252.042969 36.515625 L 252.042969 37.054688 Z M 248.097656 37.054688 "/>
<path style=" stroke:none;fill-rule:nonzero;fill:rgb(100%,100%,100%);fill-opacity:1;" d="M 257.625 39.742188 L 255.921875 36.933594 L 255.019531 37.953125 L 255.019531 39.742188 L 253.800781 39.742188 L 253.800781 31.203125 L 255.019531 31.203125 L 255.019531 36.46875 L 257.386719 33.660156 L 258.871094 33.660156 L 256.761719 36.046875 L 259.136719 39.742188 Z M 257.625 39.742188 "/>
<path style=" stroke:none;fill-rule:nonzero;fill:rgb(100%,100%,100%);fill-opacity:1;" d="M 262.316406 39.742188 C 261.179688 39.742188 260.652344 38.925781 260.652344 38.050781 L 260.652344 34.703125 L 259.957031 34.703125 L 259.957031 33.769531 L 260.652344 33.769531 L 260.652344 31.921875 L 261.875 31.921875 L 261.875 33.769531 L 263.046875 33.769531 L 263.046875 34.703125 L 261.875 34.703125 L 261.875 37.988281 C 261.875 38.433594 262.089844 38.699219 262.546875 38.699219 L 263.046875 38.699219 L 263.046875 39.742188 Z M 262.316406 39.742188 "/>
<path style=" stroke:none;fill-rule:nonzero;fill:rgb(100%,100%,100%);fill-opacity:1;" d="M 268.414062 39.742188 L 268.414062 39.128906 C 267.992188 39.585938 267.40625 39.8125 266.792969 39.8125 C 266.171875 39.8125 265.652344 39.609375 265.292969 39.261719 C 264.828125 38.804688 264.683594 38.230469 264.683594 37.546875 L 264.683594 33.660156 L 265.90625 33.660156 L 265.90625 37.367188 C 265.90625 38.3125 266.445312 38.722656 267.128906 38.722656 C 267.8125 38.722656 268.390625 38.300781 268.390625 37.367188 L 268.390625 33.660156 L 269.613281 33.660156 L 269.613281 39.742188 Z M 268.414062 39.742188 "/>
<path style=" stroke:none;fill-rule:nonzero;fill:rgb(100%,100%,100%);fill-opacity:1;" d="M 275.039062 35.085938 C 274.761719 34.8125 274.546875 34.679688 274.125 34.679688 C 273.464844 34.679688 272.914062 35.207031 272.914062 36.046875 L 272.914062 39.742188 L 271.691406 39.742188 L 271.691406 33.660156 L 272.890625 33.660156 L 272.890625 34.320312 C 273.203125 33.890625 273.824219 33.589844 274.507812 33.589844 C 275.097656 33.589844 275.539062 33.742188 275.960938 34.164062 Z M 275.039062 35.085938 "/>
<path style=" stroke:none;fill-rule:nonzero;fill:rgb(100%,100%,100%);fill-opacity:1;" d="M 281.734375 32.363281 L 281.734375 34.96875 L 285.285156 34.96875 L 285.285156 36.132812 L 281.734375 36.132812 L 281.734375 39.742188 L 280.4375 39.742188 L 280.4375 31.203125 L 285.894531 31.203125 L 285.894531 32.363281 Z M 281.734375 32.363281 "/>
<path style=" stroke:none;fill-rule:nonzero;fill:rgb(100%,100%,100%);fill-opacity:1;" d="M 290.277344 35.085938 C 290 34.8125 289.785156 34.679688 289.367188 34.679688 C 288.707031 34.679688 288.152344 35.207031 288.152344 36.046875 L 288.152344 39.742188 L 286.929688 39.742188 L 286.929688 33.660156 L 288.128906 33.660156 L 288.128906 34.320312 C 288.441406 33.890625 289.066406 33.589844 289.75 33.589844 C 290.335938 33.589844 290.78125 33.742188 291.199219 34.164062 Z M 290.277344 35.085938 "/>
<path style=" stroke:none;fill-rule:nonzero;fill:rgb(100%,100%,100%);fill-opacity:1;" d="M 295.253906 35.375 C 295.0625 34.917969 294.628906 34.609375 294.054688 34.609375 C 293.480469 34.609375 293.035156 34.917969 292.84375 35.375 C 292.722656 35.652344 292.699219 35.832031 292.6875 36.203125 L 295.421875 36.203125 C 295.410156 35.832031 295.375 35.652344 295.253906 35.375 M 292.6875 37.054688 C 292.6875 38.097656 293.238281 38.757812 294.234375 38.757812 C 294.917969 38.757812 295.277344 38.566406 295.710938 38.132812 L 296.488281 38.863281 C 295.867188 39.488281 295.277344 39.8125 294.210938 39.8125 C 292.6875 39.8125 291.476562 39.011719 291.476562 36.695312 C 291.476562 34.726562 292.496094 33.589844 294.054688 33.589844 C 295.683594 33.589844 296.632812 34.789062 296.632812 36.515625 L 296.632812 37.054688 Z M 292.6875 37.054688 "/>
<path style=" stroke:none;fill-rule:nonzero;fill:rgb(100%,100%,100%);fill-opacity:1;" d="M 298.230469 33.660156 L 299.453125 33.660156 L 299.453125 39.742188 L 298.230469 39.742188 Z M 298.195312 31.164062 L 299.492188 31.164062 L 299.492188 32.460938 L 298.195312 32.460938 Z M 298.195312 31.164062 "/>
<path style=" stroke:none;fill-rule:nonzero;fill:rgb(100%,100%,100%);fill-opacity:1;" d="M 303.871094 34.679688 C 302.765625 34.679688 302.597656 35.617188 302.597656 36.695312 C 302.597656 37.773438 302.765625 38.722656 303.871094 38.722656 C 304.972656 38.722656 305.128906 37.773438 305.128906 36.695312 C 305.128906 35.617188 304.972656 34.679688 303.871094 34.679688 M 305.667969 39.273438 C 305.332031 39.609375 304.792969 39.8125 304.179688 39.8125 C 303.523438 39.8125 303.03125 39.644531 302.574219 39.09375 L 302.574219 39.742188 L 301.375 39.742188 L 301.375 31.203125 L 302.597656 31.203125 L 302.597656 34.273438 C 303.042969 33.742188 303.546875 33.589844 304.195312 33.589844 C 304.804688 33.589844 305.332031 33.792969 305.667969 34.128906 C 306.28125 34.742188 306.351562 35.773438 306.351562 36.695312 C 306.351562 37.617188 306.28125 38.660156 305.667969 39.273438 "/>
<path style=" stroke:none;fill-rule:nonzero;fill:rgb(100%,100%,100%);fill-opacity:1;" d="M 311.65625 39.742188 L 311.65625 39.128906 C 311.238281 39.585938 310.648438 39.8125 310.039062 39.8125 C 309.414062 39.8125 308.898438 39.609375 308.539062 39.261719 C 308.070312 38.804688 307.925781 38.230469 307.925781 37.546875 L 307.925781 33.660156 L 309.152344 33.660156 L 309.152344 37.367188 C 309.152344 38.3125 309.691406 38.722656 310.375 38.722656 C 311.054688 38.722656 311.632812 38.300781 311.632812 37.367188 L 311.632812 33.660156 L 312.855469 33.660156 L 312.855469 39.742188 Z M 311.65625 39.742188 "/>
<path style=" stroke:none;fill-rule:nonzero;fill:rgb(100%,100%,100%);fill-opacity:1;" d="M 318.125 35.085938 C 317.851562 34.8125 317.632812 34.679688 317.214844 34.679688 C 316.554688 34.679688 316.003906 35.207031 316.003906 36.046875 L 316.003906 39.742188 L 314.78125 39.742188 L 314.78125 33.660156 L 315.980469 33.660156 L 315.980469 34.320312 C 316.289062 33.890625 316.914062 33.589844 317.597656 33.589844 C 318.183594 33.589844 318.628906 33.742188 319.050781 34.164062 Z M 318.125 35.085938 "/>
<path style=" stroke:none;fill-rule:nonzero;fill:rgb(100%,100%,100%);fill-opacity:1;" d="M 321.820312 34.679688 C 320.714844 34.679688 320.570312 35.628906 320.570312 36.585938 C 320.570312 37.546875 320.714844 38.492188 321.820312 38.492188 C 322.921875 38.492188 323.054688 37.546875 323.054688 36.585938 C 323.054688 35.628906 322.921875 34.679688 321.820312 34.679688 M 321.675781 42.273438 C 320.753906 42.273438 320.164062 42.054688 319.527344 41.46875 L 320.308594 40.6875 C 320.691406 41.046875 321.027344 41.230469 321.628906 41.230469 C 322.660156 41.230469 323.054688 40.496094 323.054688 39.679688 L 323.054688 38.902344 C 322.609375 39.429688 322.105469 39.597656 321.484375 39.597656 C 320.871094 39.597656 320.367188 39.394531 320.03125 39.058594 C 319.445312 38.46875 319.347656 37.617188 319.347656 36.585938 C 319.347656 35.554688 319.445312 34.703125 320.03125 34.117188 C 320.367188 33.78125 320.882812 33.589844 321.496094 33.589844 C 322.144531 33.589844 322.632812 33.757812 323.089844 34.308594 L 323.089844 33.660156 L 324.277344 33.660156 L 324.277344 39.703125 C 324.277344 41.191406 323.292969 42.273438 321.675781 42.273438 "/>
<path style=" stroke:none;fill-rule:nonzero;fill:rgb(100%,100%,100%);fill-opacity:1;" d="M 63.675781 26.011719 L 63.675781 22.285156 L 60.207031 22.285156 L 60.207031 26.011719 L 58.914062 26.011719 L 58.914062 17.472656 L 60.207031 17.472656 L 60.207031 21.117188 L 63.675781 21.117188 L 63.675781 17.472656 L 64.96875 17.472656 L 64.96875 26.011719 Z M 63.675781 26.011719 "/>
<path style=" stroke:none;fill-rule:nonzero;fill:rgb(100%,100%,100%);fill-opacity:1;" d="M 70.226562 23.328125 L 68.800781 23.328125 C 68.078125 23.328125 67.707031 23.652344 67.707031 24.203125 C 67.707031 24.753906 68.054688 25.066406 68.824219 25.066406 C 69.289062 25.066406 69.640625 25.03125 69.964844 24.71875 C 70.144531 24.539062 70.226562 24.25 70.226562 23.820312 Z M 70.25 26.011719 L 70.25 25.460938 C 69.808594 25.90625 69.386719 26.085938 68.632812 26.085938 C 67.875 26.085938 67.371094 25.90625 67 25.535156 C 66.6875 25.210938 66.519531 24.742188 66.519531 24.226562 C 66.519531 23.207031 67.226562 22.472656 68.621094 22.472656 L 70.226562 22.472656 L 70.226562 22.042969 C 70.226562 21.277344 69.84375 20.902344 68.894531 20.902344 C 68.222656 20.902344 67.898438 21.058594 67.5625 21.492188 L 66.761719 20.734375 C 67.335938 20.0625 67.9375 19.859375 68.945312 19.859375 C 70.609375 19.859375 71.449219 20.566406 71.449219 21.949219 L 71.449219 26.011719 Z M 70.25 26.011719 "/>
<path style=" stroke:none;fill-rule:nonzero;fill:rgb(100%,100%,100%);fill-opacity:1;" d="M 76.921875 26.011719 L 76.921875 25.402344 C 76.503906 25.855469 75.914062 26.085938 75.304688 26.085938 C 74.679688 26.085938 74.164062 25.882812 73.804688 25.535156 C 73.335938 25.078125 73.191406 24.503906 73.191406 23.820312 L 73.191406 19.933594 L 74.414062 19.933594 L 74.414062 23.636719 C 74.414062 24.585938 74.957031 24.992188 75.640625 24.992188 C 76.324219 24.992188 76.898438 24.574219 76.898438 23.636719 L 76.898438 19.933594 L 78.121094 19.933594 L 78.121094 26.011719 Z M 76.921875 26.011719 "/>
<path style=" stroke:none;fill-rule:nonzero;fill:rgb(100%,100%,100%);fill-opacity:1;" d="M 81.796875 26.011719 C 80.65625 26.011719 80.128906 25.199219 80.128906 24.320312 L 80.128906 20.976562 L 79.433594 20.976562 L 79.433594 20.039062 L 80.128906 20.039062 L 80.128906 18.195312 L 81.351562 18.195312 L 81.351562 20.039062 L 82.527344 20.039062 L 82.527344 20.976562 L 81.351562 20.976562 L 81.351562 24.261719 C 81.351562 24.707031 81.566406 24.96875 82.023438 24.96875 L 82.527344 24.96875 L 82.527344 26.011719 Z M 81.796875 26.011719 "/>
<path style=" stroke:none;fill-rule:nonzero;fill:rgb(100%,100%,100%);fill-opacity:1;" d="M 87.410156 21.648438 C 87.21875 21.191406 86.785156 20.878906 86.210938 20.878906 C 85.632812 20.878906 85.191406 21.191406 85 21.648438 C 84.878906 21.921875 84.855469 22.101562 84.84375 22.476562 L 87.578125 22.476562 C 87.566406 22.101562 87.527344 21.921875 87.410156 21.648438 M 84.84375 23.328125 C 84.84375 24.371094 85.394531 25.03125 86.390625 25.03125 C 87.074219 25.03125 87.433594 24.835938 87.863281 24.40625 L 88.644531 25.136719 C 88.019531 25.761719 87.433594 26.085938 86.367188 26.085938 C 84.84375 26.085938 83.632812 25.28125 83.632812 22.96875 C 83.632812 21 84.652344 19.859375 86.210938 19.859375 C 87.839844 19.859375 88.789062 21.058594 88.789062 22.785156 L 88.789062 23.328125 Z M 84.84375 23.328125 "/>
<path style=" stroke:none;fill-rule:nonzero;fill:rgb(100%,100%,100%);fill-opacity:1;" d="M 95.726562 18.828125 L 94.800781 18.828125 L 95.703125 16.886719 L 97.054688 16.886719 Z M 96.589844 21.648438 C 96.398438 21.191406 95.964844 20.878906 95.390625 20.878906 C 94.8125 20.878906 94.371094 21.191406 94.179688 21.648438 C 94.058594 21.921875 94.035156 22.101562 94.023438 22.476562 L 96.757812 22.476562 C 96.746094 22.101562 96.707031 21.921875 96.589844 21.648438 M 94.023438 23.328125 C 94.023438 24.371094 94.574219 25.03125 95.570312 25.03125 C 96.253906 25.03125 96.613281 24.835938 97.042969 24.40625 L 97.824219 25.136719 C 97.199219 25.761719 96.613281 26.085938 95.546875 26.085938 C 94.023438 26.085938 92.808594 25.28125 92.808594 22.96875 C 92.808594 21 93.832031 19.859375 95.390625 19.859375 C 97.019531 19.859375 97.96875 21.058594 97.96875 22.785156 L 97.96875 23.328125 Z M 94.023438 23.328125 "/>
<path style=" stroke:none;fill-rule:nonzero;fill:rgb(100%,100%,100%);fill-opacity:1;" d="M 101.90625 26.085938 C 100.539062 26.085938 99.195312 25.246094 99.195312 22.96875 C 99.195312 20.6875 100.539062 19.859375 101.90625 19.859375 C 102.746094 19.859375 103.332031 20.101562 103.90625 20.710938 L 103.070312 21.527344 C 102.683594 21.105469 102.386719 20.953125 101.90625 20.953125 C 101.4375 20.953125 101.042969 21.144531 100.777344 21.492188 C 100.515625 21.828125 100.417969 22.257812 100.417969 22.96875 C 100.417969 23.675781 100.515625 24.117188 100.777344 24.453125 C 101.042969 24.800781 101.4375 24.992188 101.90625 24.992188 C 102.386719 24.992188 102.683594 24.835938 103.070312 24.417969 L 103.90625 25.222656 C 103.332031 25.832031 102.746094 26.085938 101.90625 26.085938 "/>
<path style=" stroke:none;fill-rule:nonzero;fill:rgb(100%,100%,100%);fill-opacity:1;" d="M 108.179688 21.300781 C 107.953125 21.070312 107.640625 20.953125 107.28125 20.953125 C 106.921875 20.953125 106.621094 21.070312 106.394531 21.300781 C 106.019531 21.671875 105.972656 22.308594 105.972656 22.96875 C 105.972656 23.625 106.019531 24.261719 106.394531 24.632812 C 106.621094 24.863281 106.921875 24.992188 107.28125 24.992188 C 107.640625 24.992188 107.953125 24.863281 108.179688 24.632812 C 108.550781 24.261719 108.597656 23.625 108.597656 22.96875 C 108.597656 22.308594 108.550781 21.671875 108.179688 21.300781 M 109.101562 25.367188 C 108.707031 25.773438 108.109375 26.085938 107.28125 26.085938 C 106.453125 26.085938 105.863281 25.773438 105.46875 25.367188 C 104.894531 24.765625 104.75 24 104.75 22.96875 C 104.75 21.949219 104.894531 21.179688 105.46875 20.582031 C 105.863281 20.171875 106.453125 19.859375 107.28125 19.859375 C 108.109375 19.859375 108.707031 20.171875 109.101562 20.582031 C 109.679688 21.179688 109.824219 21.949219 109.824219 22.96875 C 109.824219 24 109.679688 24.765625 109.101562 25.367188 "/>
<path style=" stroke:none;fill-rule:nonzero;fill:rgb(100%,100%,100%);fill-opacity:1;" d="M 113.027344 26.011719 C 111.863281 26.011719 111.359375 25.234375 111.359375 24.335938 L 111.359375 17.472656 L 112.585938 17.472656 L 112.585938 24.261719 C 112.585938 24.730469 112.753906 24.96875 113.246094 24.96875 L 113.78125 24.96875 L 113.78125 26.011719 Z M 113.027344 26.011719 "/>
<path style=" stroke:none;fill-rule:nonzero;fill:rgb(100%,100%,100%);fill-opacity:1;" d="M 118.210938 21.648438 C 118.015625 21.191406 117.585938 20.878906 117.011719 20.878906 C 116.433594 20.878906 115.992188 21.191406 115.796875 21.648438 C 115.679688 21.921875 115.65625 22.101562 115.644531 22.476562 L 118.378906 22.476562 C 118.367188 22.101562 118.328125 21.921875 118.210938 21.648438 M 115.644531 23.328125 C 115.644531 24.371094 116.195312 25.03125 117.1875 25.03125 C 117.875 25.03125 118.234375 24.835938 118.664062 24.40625 L 119.445312 25.136719 C 118.820312 25.761719 118.234375 26.085938 117.167969 26.085938 C 115.644531 26.085938 114.429688 25.28125 114.429688 22.96875 C 114.429688 21 115.453125 19.859375 117.011719 19.859375 C 118.640625 19.859375 119.589844 21.058594 119.589844 22.785156 L 119.589844 23.328125 Z M 115.644531 23.328125 "/>
<path style=" stroke:none;fill-rule:nonzero;fill:rgb(100%,100%,100%);fill-opacity:1;" d="M 126.128906 20.953125 C 125.027344 20.953125 124.859375 21.886719 124.859375 22.96875 C 124.859375 24.046875 125.027344 24.992188 126.128906 24.992188 C 127.234375 24.992188 127.390625 24.046875 127.390625 22.96875 C 127.390625 21.886719 127.234375 20.953125 126.128906 20.953125 M 127.414062 26.011719 L 127.414062 25.367188 C 126.957031 25.917969 126.464844 26.085938 125.804688 26.085938 C 125.195312 26.085938 124.65625 25.882812 124.320312 25.546875 C 123.707031 24.933594 123.636719 23.890625 123.636719 22.96875 C 123.636719 22.042969 123.707031 21.011719 124.320312 20.398438 C 124.65625 20.0625 125.183594 19.859375 125.792969 19.859375 C 126.441406 19.859375 126.945312 20.015625 127.390625 20.542969 L 127.390625 17.472656 L 128.613281 17.472656 L 128.613281 26.011719 Z M 127.414062 26.011719 "/>
<path style=" stroke:none;fill-rule:nonzero;fill:rgb(100%,100%,100%);fill-opacity:1;" d="M 130.4375 19.824219 L 130.4375 17.472656 L 131.78125 17.472656 L 131.78125 18.734375 Z M 130.4375 19.824219 "/>
<path style=" stroke:none;fill-rule:nonzero;fill:rgb(100%,100%,100%);fill-opacity:1;" d="M 133.605469 19.933594 L 134.828125 19.933594 L 134.828125 26.011719 L 133.605469 26.011719 Z M 133.570312 17.4375 L 134.867188 17.4375 L 134.867188 18.734375 L 133.570312 18.734375 Z M 133.570312 17.4375 "/>
<path style=" stroke:none;fill-rule:nonzero;fill:rgb(100%,100%,100%);fill-opacity:1;" d="M 140.394531 26.011719 L 140.394531 22.308594 C 140.394531 21.359375 139.855469 20.949219 139.171875 20.949219 C 138.488281 20.949219 137.914062 21.371094 137.914062 22.308594 L 137.914062 26.011719 L 136.691406 26.011719 L 136.691406 19.933594 L 137.890625 19.933594 L 137.890625 20.542969 C 138.308594 20.089844 138.898438 19.859375 139.507812 19.859375 C 140.132812 19.859375 140.648438 20.0625 141.007812 20.410156 C 141.476562 20.867188 141.621094 21.445312 141.621094 22.128906 L 141.621094 26.011719 Z M 140.394531 26.011719 "/>
<path style=" stroke:none;fill-rule:nonzero;fill:rgb(100%,100%,100%);fill-opacity:1;" d="M 145.605469 20.953125 C 144.5 20.953125 144.355469 21.898438 144.355469 22.859375 C 144.355469 23.820312 144.5 24.765625 145.605469 24.765625 C 146.710938 24.765625 146.839844 23.820312 146.839844 22.859375 C 146.839844 21.898438 146.710938 20.953125 145.605469 20.953125 M 145.460938 28.542969 C 144.539062 28.542969 143.949219 28.328125 143.3125 27.738281 L 144.09375 26.960938 C 144.476562 27.320312 144.8125 27.5 145.414062 27.5 C 146.445312 27.5 146.839844 26.769531 146.839844 25.953125 L 146.839844 25.171875 C 146.398438 25.703125 145.894531 25.871094 145.269531 25.871094 C 144.65625 25.871094 144.15625 25.664062 143.816406 25.328125 C 143.230469 24.742188 143.132812 23.890625 143.132812 22.859375 C 143.132812 21.828125 143.230469 20.976562 143.816406 20.386719 C 144.15625 20.050781 144.667969 19.859375 145.28125 19.859375 C 145.929688 19.859375 146.421875 20.027344 146.875 20.582031 L 146.875 19.929688 L 148.0625 19.929688 L 148.0625 25.976562 C 148.0625 27.464844 147.082031 28.542969 145.460938 28.542969 "/>
<path style=" stroke:none;fill-rule:nonzero;fill:rgb(100%,100%,100%);fill-opacity:1;" d="M 152.527344 18.828125 L 151.605469 18.828125 L 152.503906 16.886719 L 153.859375 16.886719 Z M 153.390625 21.648438 C 153.199219 21.191406 152.769531 20.878906 152.191406 20.878906 C 151.617188 20.878906 151.175781 21.191406 150.980469 21.648438 C 150.863281 21.921875 150.839844 22.101562 150.828125 22.476562 L 153.558594 22.476562 C 153.546875 22.101562 153.511719 21.921875 153.390625 21.648438 M 150.828125 23.328125 C 150.828125 24.371094 151.378906 25.03125 152.375 25.03125 C 153.054688 25.03125 153.417969 24.835938 153.847656 24.40625 L 154.628906 25.136719 C 154.003906 25.761719 153.417969 26.085938 152.347656 26.085938 C 150.828125 26.085938 149.613281 25.28125 149.613281 22.96875 C 149.613281 21 150.632812 19.859375 152.191406 19.859375 C 153.824219 19.859375 154.773438 21.058594 154.773438 22.785156 L 154.773438 23.328125 Z M 150.828125 23.328125 "/>
<path style=" stroke:none;fill-rule:nonzero;fill:rgb(100%,100%,100%);fill-opacity:1;" d="M 160.015625 26.011719 L 160.015625 22.308594 C 160.015625 21.359375 159.476562 20.949219 158.792969 20.949219 C 158.109375 20.949219 157.535156 21.371094 157.535156 22.308594 L 157.535156 26.011719 L 156.308594 26.011719 L 156.308594 19.933594 L 157.511719 19.933594 L 157.511719 20.542969 C 157.929688 20.089844 158.515625 19.859375 159.128906 19.859375 C 159.753906 19.859375 160.269531 20.0625 160.628906 20.410156 C 161.097656 20.867188 161.238281 21.445312 161.238281 22.128906 L 161.238281 26.011719 Z M 160.015625 26.011719 "/>
<path style=" stroke:none;fill-rule:nonzero;fill:rgb(100%,100%,100%);fill-opacity:1;" d="M 163.042969 19.933594 L 164.265625 19.933594 L 164.265625 26.011719 L 163.042969 26.011719 Z M 163.007812 17.4375 L 164.300781 17.4375 L 164.300781 18.734375 L 163.007812 18.734375 Z M 163.007812 17.4375 "/>
<path style=" stroke:none;fill-rule:nonzero;fill:rgb(100%,100%,100%);fill-opacity:1;" d="M 169.59375 21.648438 C 169.402344 21.191406 168.96875 20.878906 168.394531 20.878906 C 167.816406 20.878906 167.375 21.191406 167.183594 21.648438 C 167.0625 21.921875 167.039062 22.101562 167.027344 22.476562 L 169.761719 22.476562 C 169.75 22.101562 169.710938 21.921875 169.59375 21.648438 M 167.027344 23.328125 C 167.027344 24.371094 167.578125 25.03125 168.570312 25.03125 C 169.257812 25.03125 169.617188 24.835938 170.046875 24.40625 L 170.828125 25.136719 C 170.203125 25.761719 169.617188 26.085938 168.550781 26.085938 C 167.027344 26.085938 165.8125 25.28125 165.8125 22.96875 C 165.8125 21 166.832031 19.859375 168.394531 19.859375 C 170.023438 19.859375 170.972656 21.058594 170.972656 22.785156 L 170.972656 23.328125 Z M 167.027344 23.328125 "/>
<path style=" stroke:none;fill-rule:nonzero;fill:rgb(100%,100%,100%);fill-opacity:1;" d="M 175.855469 21.359375 C 175.582031 21.082031 175.363281 20.953125 174.945312 20.953125 C 174.285156 20.953125 173.734375 21.480469 173.734375 22.320312 L 173.734375 26.011719 L 172.511719 26.011719 L 172.511719 19.933594 L 173.710938 19.933594 L 173.710938 20.59375 C 174.019531 20.160156 174.644531 19.859375 175.328125 19.859375 C 175.917969 19.859375 176.359375 20.015625 176.78125 20.4375 Z M 175.855469 21.359375 "/>
<path style=" stroke:none;fill-rule:nonzero;fill:rgb(100%,100%,100%);fill-opacity:1;" d="M 177.695312 19.933594 L 178.917969 19.933594 L 178.917969 26.011719 L 177.695312 26.011719 Z M 177.65625 17.4375 L 178.953125 17.4375 L 178.953125 18.734375 L 177.65625 18.734375 Z M 177.65625 17.4375 "/>
<path style=" stroke:none;fill-rule:nonzero;fill:rgb(100%,100%,100%);fill-opacity:1;" d="M 184.242188 21.648438 C 184.050781 21.191406 183.621094 20.878906 183.042969 20.878906 C 182.46875 20.878906 182.023438 21.191406 181.832031 21.648438 C 181.714844 21.921875 181.6875 22.101562 181.675781 22.476562 L 184.410156 22.476562 C 184.398438 22.101562 184.363281 21.921875 184.242188 21.648438 M 181.675781 23.328125 C 181.675781 24.371094 182.226562 25.03125 183.222656 25.03125 C 183.90625 25.03125 184.265625 24.835938 184.699219 24.40625 L 185.476562 25.136719 C 184.855469 25.761719 184.265625 26.085938 183.199219 26.085938 C 181.675781 26.085938 180.464844 25.28125 180.464844 22.96875 C 180.464844 21 181.484375 19.859375 183.042969 19.859375 C 184.675781 19.859375 185.621094 21.058594 185.621094 22.785156 L 185.621094 23.328125 Z M 181.675781 23.328125 "/>
<path style=" stroke:none;fill-rule:nonzero;fill:rgb(100%,100%,100%);fill-opacity:1;" d="M 193.421875 21.648438 C 193.230469 21.191406 192.800781 20.878906 192.222656 20.878906 C 191.648438 20.878906 191.203125 21.191406 191.011719 21.648438 C 190.894531 21.921875 190.867188 22.101562 190.855469 22.476562 L 193.589844 22.476562 C 193.578125 22.101562 193.542969 21.921875 193.421875 21.648438 M 190.855469 23.328125 C 190.855469 24.371094 191.40625 25.03125 192.402344 25.03125 C 193.085938 25.03125 193.445312 24.835938 193.878906 24.40625 L 194.65625 25.136719 C 194.035156 25.761719 193.445312 26.085938 192.378906 26.085938 C 190.855469 26.085938 189.644531 25.28125 189.644531 22.96875 C 189.644531 21 190.664062 19.859375 192.222656 19.859375 C 193.855469 19.859375 194.800781 21.058594 194.800781 22.785156 L 194.800781 23.328125 Z M 190.855469 23.328125 "/>
<path style=" stroke:none;fill-rule:nonzero;fill:rgb(100%,100%,100%);fill-opacity:1;" d="M 198.152344 26.011719 C 197.011719 26.011719 196.484375 25.199219 196.484375 24.320312 L 196.484375 20.976562 L 195.789062 20.976562 L 195.789062 20.039062 L 196.484375 20.039062 L 196.484375 18.195312 L 197.707031 18.195312 L 197.707031 20.039062 L 198.882812 20.039062 L 198.882812 20.976562 L 197.707031 20.976562 L 197.707031 24.261719 C 197.707031 24.707031 197.921875 24.96875 198.378906 24.96875 L 198.882812 24.96875 L 198.882812 26.011719 Z M 198.152344 26.011719 "/>
<path style=" stroke:none;fill-rule:nonzero;fill:rgb(100%,100%,100%);fill-opacity:1;" d="M 205.363281 20.953125 C 204.261719 20.953125 204.09375 21.886719 204.09375 22.96875 C 204.09375 24.046875 204.261719 24.992188 205.363281 24.992188 C 206.46875 24.992188 206.625 24.046875 206.625 22.96875 C 206.625 21.886719 206.46875 20.953125 205.363281 20.953125 M 206.648438 26.011719 L 206.648438 25.367188 C 206.191406 25.917969 205.699219 26.085938 205.039062 26.085938 C 204.429688 26.085938 203.886719 25.882812 203.550781 25.546875 C 202.941406 24.933594 202.871094 23.890625 202.871094 22.96875 C 202.871094 22.042969 202.941406 21.011719 203.550781 20.398438 C 203.886719 20.0625 204.417969 19.859375 205.027344 19.859375 C 205.675781 19.859375 206.179688 20.015625 206.625 20.542969 L 206.625 17.472656 L 207.847656 17.472656 L 207.847656 26.011719 Z M 206.648438 26.011719 "/>
<path style=" stroke:none;fill-rule:nonzero;fill:rgb(100%,100%,100%);fill-opacity:1;" d="M 209.671875 19.824219 L 209.671875 17.472656 L 211.015625 17.472656 L 211.015625 18.734375 Z M 209.671875 19.824219 "/>
<path style=" stroke:none;fill-rule:nonzero;fill:rgb(100%,100%,100%);fill-opacity:1;" d="M 216.089844 23.328125 L 214.664062 23.328125 C 213.945312 23.328125 213.570312 23.652344 213.570312 24.203125 C 213.570312 24.753906 213.921875 25.066406 214.6875 25.066406 C 215.15625 25.066406 215.503906 25.03125 215.828125 24.71875 C 216.007812 24.539062 216.089844 24.25 216.089844 23.820312 Z M 216.113281 26.011719 L 216.113281 25.460938 C 215.671875 25.90625 215.25 26.085938 214.496094 26.085938 C 213.738281 26.085938 213.238281 25.90625 212.863281 25.535156 C 212.554688 25.210938 212.386719 24.742188 212.386719 24.226562 C 212.386719 23.207031 213.09375 22.472656 214.484375 22.472656 L 216.089844 22.472656 L 216.089844 22.042969 C 216.089844 21.277344 215.707031 20.902344 214.761719 20.902344 C 214.089844 20.902344 213.765625 21.058594 213.429688 21.492188 L 212.625 20.734375 C 213.199219 20.0625 213.800781 19.859375 214.808594 19.859375 C 216.476562 19.859375 217.316406 20.566406 217.316406 21.949219 L 217.316406 26.011719 Z M 216.113281 26.011719 "/>
<path style=" stroke:none;fill-rule:nonzero;fill:rgb(100%,100%,100%);fill-opacity:1;" d="M 222.464844 21.359375 C 222.1875 21.082031 221.972656 20.953125 221.550781 20.953125 C 220.890625 20.953125 220.339844 21.480469 220.339844 22.320312 L 220.339844 26.011719 L 219.117188 26.011719 L 219.117188 19.933594 L 220.316406 19.933594 L 220.316406 20.59375 C 220.628906 20.160156 221.253906 19.859375 221.9375 19.859375 C 222.523438 19.859375 222.96875 20.015625 223.386719 20.4375 Z M 222.464844 21.359375 "/>
<path style=" stroke:none;fill-rule:nonzero;fill:rgb(100%,100%,100%);fill-opacity:1;" d="M 226.3125 26.085938 C 224.945312 26.085938 223.601562 25.246094 223.601562 22.96875 C 223.601562 20.6875 224.945312 19.859375 226.3125 19.859375 C 227.152344 19.859375 227.742188 20.101562 228.316406 20.710938 L 227.476562 21.527344 C 227.09375 21.105469 226.792969 20.953125 226.3125 20.953125 C 225.84375 20.953125 225.449219 21.144531 225.1875 21.492188 C 224.921875 21.828125 224.824219 22.257812 224.824219 22.96875 C 224.824219 23.675781 224.921875 24.117188 225.1875 24.453125 C 225.449219 24.800781 225.84375 24.992188 226.3125 24.992188 C 226.792969 24.992188 227.09375 24.835938 227.476562 24.417969 L 228.316406 25.222656 C 227.742188 25.832031 227.152344 26.085938 226.3125 26.085938 "/>
<path style=" stroke:none;fill-rule:nonzero;fill:rgb(100%,100%,100%);fill-opacity:1;" d="M 233.332031 26.011719 L 233.332031 22.285156 C 233.332031 21.359375 232.792969 20.949219 232.109375 20.949219 C 231.425781 20.949219 230.875 21.371094 230.875 22.285156 L 230.875 26.011719 L 229.652344 26.011719 L 229.652344 17.472656 L 230.875 17.472656 L 230.875 20.542969 C 231.292969 20.089844 231.84375 19.859375 232.445312 19.859375 C 233.800781 19.859375 234.554688 20.773438 234.554688 22.089844 L 234.554688 26.011719 Z M 233.332031 26.011719 "/>
<path style=" stroke:none;fill-rule:nonzero;fill:rgb(100%,100%,100%);fill-opacity:1;" d="M 236.359375 19.933594 L 237.582031 19.933594 L 237.582031 26.011719 L 236.359375 26.011719 Z M 236.320312 17.4375 L 237.617188 17.4375 L 237.617188 18.734375 L 236.320312 18.734375 Z M 236.320312 17.4375 "/>
<path style=" stroke:none;fill-rule:nonzero;fill:rgb(100%,100%,100%);fill-opacity:1;" d="M 241.253906 26.011719 C 240.113281 26.011719 239.585938 25.199219 239.585938 24.320312 L 239.585938 20.976562 L 238.890625 20.976562 L 238.890625 20.039062 L 239.585938 20.039062 L 239.585938 18.195312 L 240.808594 18.195312 L 240.808594 20.039062 L 241.984375 20.039062 L 241.984375 20.976562 L 240.808594 20.976562 L 240.808594 24.261719 C 240.808594 24.707031 241.023438 24.96875 241.480469 24.96875 L 241.984375 24.96875 L 241.984375 26.011719 Z M 241.253906 26.011719 "/>
<path style=" stroke:none;fill-rule:nonzero;fill:rgb(100%,100%,100%);fill-opacity:1;" d="M 246.867188 21.648438 C 246.675781 21.191406 246.242188 20.878906 245.667969 20.878906 C 245.089844 20.878906 244.648438 21.191406 244.457031 21.648438 C 244.335938 21.921875 244.3125 22.101562 244.300781 22.476562 L 247.035156 22.476562 C 247.023438 22.101562 246.988281 21.921875 246.867188 21.648438 M 244.300781 23.328125 C 244.300781 24.371094 244.851562 25.03125 245.847656 25.03125 C 246.53125 25.03125 246.890625 24.835938 247.324219 24.40625 L 248.101562 25.136719 C 247.476562 25.761719 246.890625 26.085938 245.824219 26.085938 C 244.300781 26.085938 243.089844 25.28125 243.089844 22.96875 C 243.089844 21 244.109375 19.859375 245.667969 19.859375 C 247.296875 19.859375 248.246094 21.058594 248.246094 22.785156 L 248.246094 23.328125 Z M 244.300781 23.328125 "/>
<path style=" stroke:none;fill-rule:nonzero;fill:rgb(100%,100%,100%);fill-opacity:1;" d="M 252.183594 26.085938 C 250.816406 26.085938 249.472656 25.246094 249.472656 22.96875 C 249.472656 20.6875 250.816406 19.859375 252.183594 19.859375 C 253.023438 19.859375 253.609375 20.101562 254.1875 20.710938 L 253.347656 21.527344 C 252.960938 21.105469 252.660156 20.953125 252.183594 20.953125 C 251.714844 20.953125 251.320312 21.144531 251.054688 21.492188 C 250.789062 21.828125 250.695312 22.257812 250.695312 22.96875 C 250.695312 23.675781 250.789062 24.117188 251.054688 24.453125 C 251.320312 24.800781 251.714844 24.992188 252.183594 24.992188 C 252.660156 24.992188 252.960938 24.835938 253.347656 24.417969 L 254.1875 25.222656 C 253.609375 25.832031 253.023438 26.085938 252.183594 26.085938 "/>
<path style=" stroke:none;fill-rule:nonzero;fill:rgb(100%,100%,100%);fill-opacity:1;" d="M 257.332031 26.011719 C 256.191406 26.011719 255.664062 25.199219 255.664062 24.320312 L 255.664062 20.976562 L 254.96875 20.976562 L 254.96875 20.039062 L 255.664062 20.039062 L 255.664062 18.195312 L 256.886719 18.195312 L 256.886719 20.039062 L 258.0625 20.039062 L 258.0625 20.976562 L 256.886719 20.976562 L 256.886719 24.261719 C 256.886719 24.707031 257.101562 24.96875 257.558594 24.96875 L 258.0625 24.96875 L 258.0625 26.011719 Z M 257.332031 26.011719 "/>
<path style=" stroke:none;fill-rule:nonzero;fill:rgb(100%,100%,100%);fill-opacity:1;" d="M 263.210938 26.011719 L 263.210938 25.402344 C 262.789062 25.855469 262.203125 26.085938 261.589844 26.085938 C 260.96875 26.085938 260.453125 25.882812 260.09375 25.535156 C 259.625 25.078125 259.480469 24.503906 259.480469 23.820312 L 259.480469 19.933594 L 260.703125 19.933594 L 260.703125 23.636719 C 260.703125 24.585938 261.242188 24.992188 261.925781 24.992188 C 262.609375 24.992188 263.1875 24.574219 263.1875 23.636719 L 263.1875 19.933594 L 264.410156 19.933594 L 264.410156 26.011719 Z M 263.210938 26.011719 "/>
<path style=" stroke:none;fill-rule:nonzero;fill:rgb(100%,100%,100%);fill-opacity:1;" d="M 269.628906 21.359375 C 269.355469 21.082031 269.140625 20.953125 268.71875 20.953125 C 268.058594 20.953125 267.507812 21.480469 267.507812 22.320312 L 267.507812 26.011719 L 266.285156 26.011719 L 266.285156 19.933594 L 267.484375 19.933594 L 267.484375 20.59375 C 267.796875 20.160156 268.417969 19.859375 269.101562 19.859375 C 269.691406 19.859375 270.132812 20.015625 270.554688 20.4375 Z M 269.628906 21.359375 "/>
<path style=" stroke:none;fill-rule:nonzero;fill:rgb(100%,100%,100%);fill-opacity:1;" d="M 274.558594 21.648438 C 274.367188 21.191406 273.933594 20.878906 273.359375 20.878906 C 272.785156 20.878906 272.339844 21.191406 272.148438 21.648438 C 272.027344 21.921875 272.003906 22.101562 271.992188 22.476562 L 274.726562 22.476562 C 274.714844 22.101562 274.679688 21.921875 274.558594 21.648438 M 271.992188 23.328125 C 271.992188 24.371094 272.542969 25.03125 273.539062 25.03125 C 274.222656 25.03125 274.582031 24.835938 275.015625 24.40625 L 275.792969 25.136719 C 275.171875 25.761719 274.582031 26.085938 273.515625 26.085938 C 271.992188 26.085938 270.78125 25.28125 270.78125 22.96875 C 270.78125 21 271.800781 19.859375 273.359375 19.859375 C 274.992188 19.859375 275.9375 21.058594 275.9375 22.785156 L 275.9375 23.328125 Z M 271.992188 23.328125 "/>
<path style=" stroke:none;fill-rule:nonzero;fill:rgb(100%,100%,100%);fill-opacity:1;" d="M 281.710938 18.636719 L 281.710938 21.238281 L 285.261719 21.238281 L 285.261719 22.402344 L 281.710938 22.402344 L 281.710938 26.011719 L 280.417969 26.011719 L 280.417969 17.472656 L 285.875 17.472656 L 285.875 18.636719 Z M 281.710938 18.636719 "/>
<path style=" stroke:none;fill-rule:nonzero;fill:rgb(100%,100%,100%);fill-opacity:1;" d="M 290.195312 21.359375 C 289.917969 21.082031 289.703125 20.953125 289.285156 20.953125 C 288.625 20.953125 288.070312 21.480469 288.070312 22.320312 L 288.070312 26.011719 L 286.847656 26.011719 L 286.847656 19.933594 L 288.046875 19.933594 L 288.046875 20.59375 C 288.359375 20.160156 288.984375 19.859375 289.667969 19.859375 C 290.253906 19.859375 290.699219 20.015625 291.117188 20.4375 Z M 290.195312 21.359375 "/>
<path style=" stroke:none;fill-rule:nonzero;fill:rgb(100%,100%,100%);fill-opacity:1;" d="M 292.054688 19.933594 L 293.277344 19.933594 L 293.277344 26.011719 L 292.054688 26.011719 Z M 292.019531 17.4375 L 293.316406 17.4375 L 293.316406 18.734375 L 292.019531 18.734375 Z M 292.019531 17.4375 "/>
<path style=" stroke:none;fill-rule:nonzero;fill:rgb(100%,100%,100%);fill-opacity:1;" d="M 297.660156 20.953125 C 296.554688 20.953125 296.386719 21.886719 296.386719 22.96875 C 296.386719 24.046875 296.554688 24.992188 297.660156 24.992188 C 298.761719 24.992188 298.917969 24.046875 298.917969 22.96875 C 298.917969 21.886719 298.761719 20.953125 297.660156 20.953125 M 299.457031 25.546875 C 299.121094 25.882812 298.582031 26.085938 297.96875 26.085938 C 297.3125 26.085938 296.820312 25.917969 296.363281 25.367188 L 296.363281 26.011719 L 295.164062 26.011719 L 295.164062 17.472656 L 296.386719 17.472656 L 296.386719 20.542969 C 296.832031 20.015625 297.335938 19.859375 297.984375 19.859375 C 298.59375 19.859375 299.121094 20.0625 299.457031 20.398438 C 300.070312 21.011719 300.140625 22.042969 300.140625 22.96875 C 300.140625 23.890625 300.070312 24.933594 299.457031 25.546875 "/>
<path style=" stroke:none;fill-rule:nonzero;fill:rgb(100%,100%,100%);fill-opacity:1;" d="M 304.882812 21.300781 C 304.652344 21.070312 304.34375 20.953125 303.984375 20.953125 C 303.625 20.953125 303.324219 21.070312 303.097656 21.300781 C 302.722656 21.671875 302.675781 22.308594 302.675781 22.96875 C 302.675781 23.625 302.722656 24.261719 303.097656 24.632812 C 303.324219 24.863281 303.625 24.992188 303.984375 24.992188 C 304.34375 24.992188 304.652344 24.863281 304.882812 24.632812 C 305.253906 24.261719 305.300781 23.625 305.300781 22.96875 C 305.300781 22.308594 305.253906 21.671875 304.882812 21.300781 M 305.804688 25.367188 C 305.410156 25.773438 304.8125 26.085938 303.984375 26.085938 C 303.15625 26.085938 302.566406 25.773438 302.171875 25.367188 C 301.597656 24.765625 301.453125 24 301.453125 22.96875 C 301.453125 21.949219 301.597656 21.179688 302.171875 20.582031 C 302.566406 20.171875 303.15625 19.859375 303.984375 19.859375 C 304.8125 19.859375 305.410156 20.171875 305.804688 20.582031 C 306.382812 21.179688 306.527344 21.949219 306.527344 22.96875 C 306.527344 24 306.382812 24.765625 305.804688 25.367188 "/>
<path style=" stroke:none;fill-rule:nonzero;fill:rgb(100%,100%,100%);fill-opacity:1;" d="M 311.769531 26.011719 L 311.769531 25.402344 C 311.351562 25.855469 310.761719 26.085938 310.152344 26.085938 C 309.527344 26.085938 309.011719 25.882812 308.652344 25.535156 C 308.183594 25.078125 308.039062 24.503906 308.039062 23.820312 L 308.039062 19.933594 L 309.261719 19.933594 L 309.261719 23.636719 C 309.261719 24.585938 309.804688 24.992188 310.488281 24.992188 C 311.167969 24.992188 311.746094 24.574219 311.746094 23.636719 L 311.746094 19.933594 L 312.96875 19.933594 L 312.96875 26.011719 Z M 311.769531 26.011719 "/>
<path style=" stroke:none;fill-rule:nonzero;fill:rgb(100%,100%,100%);fill-opacity:1;" d="M 318.179688 21.359375 C 317.902344 21.082031 317.6875 20.953125 317.265625 20.953125 C 316.605469 20.953125 316.054688 21.480469 316.054688 22.320312 L 316.054688 26.011719 L 314.832031 26.011719 L 314.832031 19.933594 L 316.03125 19.933594 L 316.03125 20.59375 C 316.34375 20.160156 316.96875 19.859375 317.652344 19.859375 C 318.238281 19.859375 318.683594 20.015625 319.101562 20.4375 Z M 318.179688 21.359375 "/>
<path style=" stroke:none;fill-rule:nonzero;fill:rgb(100%,100%,100%);fill-opacity:1;" d="M 321.8125 20.953125 C 320.707031 20.953125 320.566406 21.898438 320.566406 22.859375 C 320.566406 23.820312 320.707031 24.765625 321.8125 24.765625 C 322.914062 24.765625 323.046875 23.820312 323.046875 22.859375 C 323.046875 21.898438 322.914062 20.953125 321.8125 20.953125 M 321.667969 28.542969 C 320.746094 28.542969 320.15625 28.328125 319.519531 27.738281 L 320.300781 26.960938 C 320.683594 27.320312 321.019531 27.5 321.621094 27.5 C 322.652344 27.5 323.046875 26.769531 323.046875 25.953125 L 323.046875 25.171875 C 322.605469 25.703125 322.101562 25.871094 321.476562 25.871094 C 320.863281 25.871094 320.359375 25.664062 320.023438 25.328125 C 319.4375 24.742188 319.339844 23.890625 319.339844 22.859375 C 319.339844 21.828125 319.4375 20.976562 320.023438 20.386719 C 320.359375 20.050781 320.875 19.859375 321.488281 19.859375 C 322.136719 19.859375 322.625 20.027344 323.082031 20.582031 L 323.082031 19.929688 L 324.269531 19.929688 L 324.269531 25.976562 C 324.269531 27.464844 323.289062 28.542969 321.667969 28.542969 "/>
</g>
</svg>
