<?xml version="1.0" encoding="UTF-8"?>
<svg xmlns="http://www.w3.org/2000/svg" xmlns:xlink="http://www.w3.org/1999/xlink" width="70.8661pt" height="70.8661pt" viewBox="0 0 70.8661 70.8661">
<defs>
<clipPath id="clip-0">
<path clip-rule="nonzero" d="M 20 37 L 56 37 L 56 70.867188 L 20 70.867188 Z M 20 37 "/>
</clipPath>
</defs>
<path fill-rule="nonzero" fill="rgb(46.618652%, 21.884155%, 3.29895%)" fill-opacity="1" d="M 35.433594 70.464844 C 16.117188 70.464844 0.398438 54.75 0.398438 35.433594 C 0.398438 16.117188 16.117188 0.398438 35.433594 0.398438 C 54.75 0.398438 70.464844 16.117188 70.464844 35.433594 C 70.464844 54.75 54.75 70.464844 35.433594 70.464844 "/>
<path fill-rule="nonzero" fill="rgb(100%, 100%, 100%)" fill-opacity="1" d="M 35.433594 0 C 15.863281 0 0 15.863281 0 35.433594 C 0 55.003906 15.863281 70.867188 35.433594 70.867188 C 55.003906 70.867188 70.867188 55.003906 70.867188 35.433594 C 70.867188 15.863281 55.003906 0 35.433594 0 M 35.433594 0.800781 C 54.53125 0.800781 70.066406 16.335938 70.066406 35.433594 C 70.066406 54.53125 54.53125 70.066406 35.433594 70.066406 C 16.335938 70.066406 0.800781 54.53125 0.800781 35.433594 C 0.800781 16.335938 16.335938 0.800781 35.433594 0.800781 "/>
<path fill="none" stroke-width="0.8" stroke-linecap="round" stroke-linejoin="round" stroke="rgb(100%, 100%, 100%)" stroke-opacity="1" stroke-miterlimit="10" d="M -0.00100625 -0.00106875 L 0.0536812 2.401275 L -2.606475 2.963775 C -2.727569 3.397369 -2.887725 3.827056 -3.110381 4.241119 C -3.391631 4.756744 -3.751006 5.190337 -4.145538 5.588775 L -3.2471 8.209869 L -5.336944 9.397369 L -7.149444 7.256744 C -7.993194 7.444244 -8.868194 7.44815 -9.731475 7.268462 L -11.516631 9.452056 L -13.629913 8.307525 L -12.766631 5.620025 C -13.446319 4.936431 -13.954131 4.123931 -14.251006 3.2294 L -17.001006 2.772369 L -17.055694 0.370025 L -14.356475 -0.200288 C -14.231475 -0.672944 -14.071319 -1.137788 -13.829131 -1.5831 C -13.567413 -2.067475 -13.231475 -2.477631 -12.8721 -2.860444 L -13.754913 -5.438569 L -11.665069 -6.626069 L -9.926788 -4.571381 C -9.036163 -4.794038 -8.102569 -4.805756 -7.180694 -4.606538 L -5.485381 -6.680756 L -3.3721 -5.536225 L -4.192413 -2.981538 C -3.46585 -2.262788 -2.926788 -1.3956 -2.637725 -0.438569 Z M -0.00100625 -0.00106875 " transform="matrix(1, 0, 0, -1, 40.1221, 50.2919)"/>
<path fill="none" stroke-width="0.8" stroke-linecap="round" stroke-linejoin="round" stroke="rgb(100%, 100%, 100%)" stroke-opacity="1" stroke-miterlimit="10" d="M -0.00045 -0.0000625 C 0.00345625 1.331969 -1.070763 2.414 -2.402794 2.417906 C -3.734825 2.421813 -4.816856 1.347594 -4.820763 0.0155625 C -4.824669 -1.316469 -3.75045 -2.3985 -2.418419 -2.402406 C -1.086388 -2.406312 -0.00435625 -1.332094 -0.00045 -0.0000625 Z M -0.00045 -0.0000625 " transform="matrix(1, 0, 0, -1, 34.0317, 48.914)"/>
<path fill="none" stroke-width="0.8" stroke-linecap="round" stroke-linejoin="round" stroke="rgb(100%, 100%, 100%)" stroke-opacity="1" stroke-miterlimit="10" d="M 0 -0.00003125 C 0.00390625 0.957 -0.15625 1.874969 -0.441406 2.73825 L 1.324219 4.281219 L 0.03125 6.48825 L -2.164062 5.703094 C -3.355469 7.035125 -4.953125 7.999969 -6.769531 8.378875 L -7.1875 10.6445 L -9.746094 10.656219 L -10.1875 8.3945 C -11.996094 8.035125 -13.597656 7.093719 -14.796875 5.781219 L -16.984375 6.597625 L -18.308594 4.406219 L -16.558594 2.839813 C -16.859375 1.972625 -17.03125 1.05075 -17.035156 0.082 C -17.039062 -0.906281 -16.867188 -1.8555 -16.5625 -2.738312 L -18.363281 -4.312531 L -17.066406 -6.519562 L -14.796875 -5.703156 C -13.617188 -6.988312 -12.058594 -7.921906 -10.285156 -8.293 L -9.847656 -10.671906 L -7.289062 -10.687531 L -6.828125 -8.308625 C -5.0625 -7.953156 -3.503906 -7.046906 -2.3125 -5.785187 L -0.0546875 -6.628937 L 1.269531 -4.437531 L -0.511719 -2.843781 C -0.1875 -1.953156 -0.00390625 -1.000031 0 -0.00003125 Z M 0 -0.00003125 " transform="matrix(1, 0, 0, -1, 57.75, 38.582)"/>
<path fill="none" stroke-width="0.8" stroke-linecap="round" stroke-linejoin="round" stroke="rgb(100%, 100%, 100%)" stroke-opacity="1" stroke-miterlimit="10" d="M -0.00004375 0.001375 C -1.027387 0.825594 -2.382856 1.239656 -3.793012 1.04825 C -6.519575 0.67325 -8.429731 -1.842375 -8.058637 -4.572844 C -7.683637 -7.299406 -5.168012 -9.209562 -2.437544 -8.834562 C 0.289019 -8.459562 2.199175 -5.947844 1.824175 -3.217375 " transform="matrix(1, 0, 0, -1, 52.3477, 34.7045)"/>
<path fill-rule="nonzero" fill="rgb(100%, 100%, 100%)" fill-opacity="1" d="M 48.480469 38.675781 C 48.4375 38.261719 48.738281 37.890625 49.152344 37.84375 C 49.566406 37.800781 49.9375 38.101562 49.984375 38.519531 C 50.027344 38.933594 49.726562 39.304688 49.308594 39.347656 C 48.894531 39.390625 48.523438 39.089844 48.480469 38.675781 "/>
<path fill="none" stroke-width="0.8" stroke-linecap="round" stroke-linejoin="round" stroke="rgb(100%, 100%, 100%)" stroke-opacity="1" stroke-miterlimit="10" d="M 0.00045 -0.0010625 L 0.00045 13.709875 " transform="matrix(1, 0, 0, -1, 28.8433, 38.163)"/>
<path fill="none" stroke-width="0.8" stroke-linecap="round" stroke-linejoin="round" stroke="rgb(100%, 100%, 100%)" stroke-opacity="1" stroke-miterlimit="10" d="M 0.00096875 0.00043125 C -1.514656 0.6059 -1.686531 3.738712 -0.38575 6.996525 C 0.918937 10.258244 3.200187 12.406681 4.715812 11.801212 Z M 0.00096875 0.00043125 " transform="matrix(1, 0, 0, -1, 28.8545, 23.7934)"/>
<path fill="none" stroke-width="0.8" stroke-linecap="round" stroke-linejoin="round" stroke="rgb(100%, 100%, 100%)" stroke-opacity="1" stroke-miterlimit="10" d="M 0.00096875 0.00043125 C 1.282219 1.008244 4.083 -0.405819 6.254875 -3.163631 C 8.42675 -5.921444 9.1455 -8.976131 7.86425 -9.983944 Z M 0.00096875 0.00043125 " transform="matrix(1, 0, 0, -1, 28.8545, 23.7934)"/>
<path fill="none" stroke-width="0.8" stroke-linecap="round" stroke-linejoin="round" stroke="rgb(100%, 100%, 100%)" stroke-opacity="1" stroke-miterlimit="10" d="M 0.00096875 0.00043125 C 0.231437 -1.616756 -2.393563 -3.3316 -5.866219 -3.8316 C -9.342781 -4.335506 -12.346688 -3.433163 -12.581063 -1.815975 Z M 0.00096875 0.00043125 " transform="matrix(1, 0, 0, -1, 28.8545, 23.7934)"/>
<path fill-rule="nonzero" fill="rgb(52.182007%, 22.195435%, 10.011292%)" fill-opacity="1" d="M 30.789062 24.367188 C 30.460938 25.453125 29.320312 26.066406 28.234375 25.742188 C 27.148438 25.414062 26.535156 24.273438 26.863281 23.1875 C 27.1875 22.101562 28.332031 21.488281 29.414062 21.816406 C 30.5 22.140625 31.113281 23.285156 30.789062 24.367188 "/>
<path fill="none" stroke-width="0.8" stroke-linecap="round" stroke-linejoin="round" stroke="rgb(100%, 100%, 100%)" stroke-opacity="1" stroke-miterlimit="10" d="M 0.0014625 0.0019125 C -0.326662 -1.084025 -1.467287 -1.697306 -2.553225 -1.373087 C -3.639162 -1.044962 -4.252444 0.0956625 -3.924319 1.1816 C -3.6001 2.267538 -2.455569 2.880819 -1.373537 2.552694 C -0.2876 2.228475 0.325681 1.083944 0.0014625 0.0019125 Z M 0.0014625 0.0019125 " transform="matrix(1, 0, 0, -1, 30.7876, 24.3691)"/>
<path fill="none" stroke-width="0.8" stroke-linecap="round" stroke-linejoin="miter" stroke="rgb(100%, 100%, 100%)" stroke-opacity="1" stroke-dasharray="0.598 1.794" stroke-miterlimit="10" d="M -0.00051875 -0.000075 C -7.266144 -0.000075 -13.160675 -5.8907 -13.160675 -13.160231 " transform="matrix(1, 0, 0, -1, 29.1763, 8.7968)"/>
<g clip-path="url(#clip-0)">
<path fill="none" stroke-width="0.8" stroke-linecap="round" stroke-linejoin="miter" stroke="rgb(100%, 100%, 100%)" stroke-opacity="1" stroke-dasharray="0.598 1.794" stroke-miterlimit="10" d="M -0.0005 -0.0010125 C 7.269031 -0.0010125 13.159656 5.893519 13.159656 13.159144 " transform="matrix(1, 0, 0, -1, 31.313, 62.0693)"/>
</g>
</svg>
