<?xml version="1.0" encoding="UTF-8"?>
<svg xmlns="http://www.w3.org/2000/svg" xmlns:xlink="http://www.w3.org/1999/xlink" width="70.8661pt" height="70.8661pt" viewBox="0 0 70.8661 70.8661">
<path fill-rule="nonzero" fill="rgb(85.630798%, 69.07959%, 2.159119%)" fill-opacity="1" d="M 35.433594 70.464844 C 16.117188 70.464844 0.402344 54.75 0.402344 35.433594 C 0.402344 16.117188 16.117188 0.398438 35.433594 0.398438 C 54.75 0.398438 70.464844 16.117188 70.464844 35.433594 C 70.464844 54.75 54.75 70.464844 35.433594 70.464844 "/>
<path fill-rule="nonzero" fill="rgb(100%, 100%, 100%)" fill-opacity="1" d="M 35.433594 0 C 15.863281 0 0 15.863281 0 35.433594 C 0 55.003906 15.863281 70.867188 35.433594 70.867188 C 55 70.867188 70.867188 55.003906 70.867188 35.433594 C 70.867188 15.863281 55 0 35.433594 0 M 35.433594 0.800781 C 54.53125 0.800781 70.066406 16.335938 70.066406 35.433594 C 70.066406 54.53125 54.53125 70.066406 35.433594 70.066406 C 16.335938 70.066406 0.800781 54.53125 0.800781 35.433594 C 0.800781 16.335938 16.335938 0.800781 35.433594 0.800781 "/>
<path fill="none" stroke-width="0.8" stroke-linecap="butt" stroke-linejoin="round" stroke="rgb(100%, 100%, 100%)" stroke-opacity="1" stroke-miterlimit="10" d="M 0.00085 0.0019125 L 10.840694 -0.00199375 L 10.840694 -10.841837 L 0.00085 -10.841837 Z M 0.00085 0.0019125 " transform="matrix(1, 0, 0, -1, 30.0304, 46.9316)"/>
<path fill="none" stroke-width="0.8" stroke-linecap="round" stroke-linejoin="round" stroke="rgb(100%, 100%, 100%)" stroke-opacity="1" stroke-miterlimit="10" d="M -0.000175 0.00095 L -0.00408125 -2.647487 " transform="matrix(1, 0, 0, -1, 38.8908, 57.8447)"/>
<path fill="none" stroke-width="0.8" stroke-linecap="round" stroke-linejoin="round" stroke="rgb(100%, 100%, 100%)" stroke-opacity="1" stroke-miterlimit="10" d="M -0.0001125 -0.00103125 L -0.00401875 -2.645562 " transform="matrix(1, 0, 0, -1, 31.9923, 57.831)"/>
<path fill="none" stroke-width="0.8" stroke-linecap="round" stroke-linejoin="round" stroke="rgb(100%, 100%, 100%)" stroke-opacity="1" stroke-miterlimit="10" d="M -0.00009375 -0.00194375 L -0.004 -2.646475 " transform="matrix(1, 0, 0, -1, 35.4415, 57.8379)"/>
<path fill="none" stroke-width="0.8" stroke-linecap="round" stroke-linejoin="round" stroke="rgb(100%, 100%, 100%)" stroke-opacity="1" stroke-miterlimit="10" d="M -0.000175 -0.00000625 L -0.00408125 -2.644537 " transform="matrix(1, 0, 0, -1, 38.8908, 44.1289)"/>
<path fill="none" stroke-width="0.8" stroke-linecap="round" stroke-linejoin="round" stroke="rgb(100%, 100%, 100%)" stroke-opacity="1" stroke-miterlimit="10" d="M -0.0001125 0.00191875 L -0.00401875 -2.646519 " transform="matrix(1, 0, 0, -1, 31.9923, 44.1152)"/>
<path fill="none" stroke-width="0.8" stroke-linecap="round" stroke-linejoin="round" stroke="rgb(100%, 100%, 100%)" stroke-opacity="1" stroke-miterlimit="10" d="M -0.00009375 0.00090625 L -0.004 -2.647531 " transform="matrix(1, 0, 0, -1, 35.4415, 44.122)"/>
<path fill="none" stroke-width="0.8" stroke-linecap="round" stroke-linejoin="miter" stroke="rgb(100%, 100%, 100%)" stroke-opacity="1" stroke-dasharray="0.5 1.5" stroke-miterlimit="10" d="M -0.0011125 -0.00004375 L 13.147325 -0.00395 " transform="matrix(1, 0, 0, -1, 45.1808, 52.2773)"/>
<path fill="none" stroke-width="0.8" stroke-linecap="round" stroke-linejoin="miter" stroke="rgb(100%, 100%, 100%)" stroke-opacity="1" stroke-dasharray="0.5 1.5" stroke-miterlimit="10" d="M -0.00114375 -0.00004375 L 13.147294 -0.00395 " transform="matrix(1, 0, 0, -1, 12.5363, 52.2773)"/>
<path fill="none" stroke-width="0.8" stroke-linecap="round" stroke-linejoin="round" stroke="rgb(100%, 100%, 100%)" stroke-opacity="1" stroke-miterlimit="10" d="M -0.00009375 -0.00101875 L -2.644625 0.0028875 " transform="matrix(1, 0, 0, -1, 43.5665, 52.3232)"/>
<path fill="none" stroke-width="0.8" stroke-linecap="round" stroke-linejoin="round" stroke="rgb(100%, 100%, 100%)" stroke-opacity="1" stroke-miterlimit="10" d="M -0.00009375 0.0009375 L -2.644625 0.00484375 " transform="matrix(1, 0, 0, -1, 43.5665, 55.1025)"/>
<path fill="none" stroke-width="0.8" stroke-linecap="round" stroke-linejoin="round" stroke="rgb(100%, 100%, 100%)" stroke-opacity="1" stroke-miterlimit="10" d="M -0.00009375 0.00193125 L -2.644625 0.00193125 " transform="matrix(1, 0, 0, -1, 43.5665, 49.5449)"/>
<path fill="none" stroke-width="0.8" stroke-linecap="round" stroke-linejoin="round" stroke="rgb(100%, 100%, 100%)" stroke-opacity="1" stroke-miterlimit="10" d="M 0.0008375 -0.00101875 L -2.6476 0.0028875 " transform="matrix(1, 0, 0, -1, 30.0226, 52.3232)"/>
<path fill="none" stroke-width="0.8" stroke-linecap="round" stroke-linejoin="round" stroke="rgb(100%, 100%, 100%)" stroke-opacity="1" stroke-miterlimit="10" d="M 0.0008375 0.0009375 L -2.6476 0.00484375 " transform="matrix(1, 0, 0, -1, 30.0226, 55.1025)"/>
<path fill="none" stroke-width="0.8" stroke-linecap="round" stroke-linejoin="round" stroke="rgb(100%, 100%, 100%)" stroke-opacity="1" stroke-miterlimit="10" d="M 0.0008375 0.00193125 L -2.6476 0.00193125 " transform="matrix(1, 0, 0, -1, 30.0226, 49.5449)"/>
<path fill="none" stroke-width="0.8" stroke-linecap="round" stroke-linejoin="round" stroke="rgb(100%, 100%, 100%)" stroke-opacity="1" stroke-miterlimit="10" d="M 0.000825 0.00041875 L -6.526519 -31.0113 " transform="matrix(1, 0, 0, -1, 31.7023, 12.4262)"/>
<path fill="none" stroke-width="0.8" stroke-linecap="round" stroke-linejoin="round" stroke="rgb(100%, 100%, 100%)" stroke-opacity="1" stroke-miterlimit="10" d="M 0.00088125 -0.00105625 L -6.319431 30.983319 " transform="matrix(1, 0, 0, -1, 45.8624, 43.4091)"/>
<path fill="none" stroke-width="0.8" stroke-linecap="round" stroke-linejoin="round" stroke="rgb(100%, 100%, 100%)" stroke-opacity="1" stroke-miterlimit="10" d="M -0.00109375 -0.00105625 L -16.926875 9.256756 L -3.430781 17.545819 L -10.797969 24.709881 " transform="matrix(1, 0, 0, -1, 44.88, 39.4716)"/>
<path fill="none" stroke-width="0.8" stroke-linecap="round" stroke-linejoin="round" stroke="rgb(100%, 100%, 100%)" stroke-opacity="1" stroke-miterlimit="10" d="M -0.00108125 -0.00105625 L 16.8622 9.37785 L 3.491106 17.50285 L 13.342669 27.045819 L 9.569231 31.268475 L 5.502825 27.045819 " transform="matrix(1, 0, 0, -1, 26.2003, 39.4716)"/>
<path fill="none" stroke-width="0.8" stroke-linecap="round" stroke-linejoin="round" stroke="rgb(100%, 100%, 100%)" stroke-opacity="1" stroke-miterlimit="10" d="M -0.00016875 -0.00155625 L -6.011888 3.43985 L 3.390456 3.43985 " transform="matrix(1, 0, 0, -1, 26.8947, 21.1586)"/>
<path fill="none" stroke-width="0.8" stroke-linecap="round" stroke-linejoin="round" stroke="rgb(100%, 100%, 100%)" stroke-opacity="1" stroke-miterlimit="10" d="M 0.00084375 0.00139375 L 8.133656 5.712331 L -4.589 5.712331 " transform="matrix(1, 0, 0, -1, 47.6515, 35.9428)"/>
<path fill="none" stroke-width="0.8" stroke-linecap="round" stroke-linejoin="round" stroke="rgb(100%, 100%, 100%)" stroke-opacity="1" stroke-miterlimit="10" d="M 0.0017875 0.00139375 L -8.134931 5.712331 L 4.587725 5.712331 " transform="matrix(1, 0, 0, -1, 23.3654, 35.9428)"/>
<path fill="none" stroke-width="0.8" stroke-linecap="round" stroke-linejoin="round" stroke="rgb(100%, 100%, 100%)" stroke-opacity="1" stroke-miterlimit="10" d="M 0.00176875 -0.00155625 L 6.013488 3.43985 L -3.392762 3.43985 " transform="matrix(1, 0, 0, -1, 44.0412, 21.1586)"/>
</svg>
